<svg width="1200" height="299" viewBox="0 0 1200 299" fill="none" xmlns="http://www.w3.org/2000/svg">
<path fill-rule="evenodd" clip-rule="evenodd" d="M22.8 296.75V138.26L76.16 296.75H94.29C94.55 295.45 147.58 138.52 147.58 139.04V296.75H170.38V102.26H137.38L85.47 254.26C85.47 254.78 85.21 255.12 84.96 255.12C84.71 255.12 84.7 254.78 84.44 254.26L32.71 102.26H0V296.75H22.8Z" fill="white"/>
<path fill-rule="evenodd" clip-rule="evenodd" d="M274.28 145.27C274.54 144.76 274.54 144.5 274.8 144.5C275.06 144.5 275.31 144.76 275.31 145.27L303.56 227.52C303.56 227.78 303.82 227.96 303.82 228.22C303.82 229 303.3 229.52 302.01 229.52H247.32C247.147 229.529 246.975 229.501 246.814 229.439C246.653 229.376 246.506 229.281 246.385 229.158C246.263 229.035 246.168 228.888 246.107 228.727C246.046 228.565 246.02 228.393 246.03 228.22C246.013 228.091 246.028 227.96 246.073 227.838C246.118 227.716 246.193 227.607 246.29 227.52L274.28 145.27ZM266 102.34L197.82 296.75H222.18L237 254.25C237.26 252.93 238 252.33 239.59 252.33H310C310.279 252.301 310.562 252.328 310.831 252.409C311.1 252.49 311.35 252.624 311.566 252.803C311.783 252.981 311.962 253.201 312.093 253.45C312.224 253.698 312.305 253.97 312.33 254.25L326.85 296.75H351.73L283.09 102.26H266V102.34Z" fill="white"/>
<path fill-rule="evenodd" clip-rule="evenodd" d="M400.74 296.67V102.26H377.95V296.75H400.31L400.74 296.67Z" fill="white"/>
<path fill-rule="evenodd" clip-rule="evenodd" d="M458.33 296.75V140.16C458.33 139.16 458.64 138.92 458.9 138.92C459.16 138.92 459.42 139.25 459.68 139.77L553.61 296.77H581.92V102.26H559.12V260.26C559.12 260.78 559.12 260.85 558.86 260.85C558.6 260.85 558.54 260.52 558.28 260L463.83 102.26H435.54V296.75H458.33Z" fill="white"/>
<path fill-rule="evenodd" clip-rule="evenodd" d="M612.26 269.14C619.78 286.47 636.26 298.81 656.73 298.81C662.953 298.854 669.123 297.66 674.88 295.298C680.638 292.935 685.868 289.451 690.267 285.049C694.666 280.646 698.145 275.413 700.503 269.654C702.86 263.894 704.049 257.723 704 251.5V101.86H681V251C681 264.75 669.86 276.12 656.38 276.12C645.75 276.12 637.66 269.12 633.77 260.03L612.26 269.14Z" fill="white"/>
<path fill-rule="evenodd" clip-rule="evenodd" d="M983.86 127.47C983.86 125.9 983.96 125.07 985.52 125.07H1004.52C1031.59 125.07 1037.32 144.59 1037.32 155.83C1037.32 167.07 1031.59 187.5 1004.52 187.5H985.42C984.42 187.5 983.86 186.98 983.86 185.67V127.47ZM983.86 211.47C983.86 210.68 983.7 210.53 984.75 210.27H1017.75C1044.75 210.27 1050.47 231.54 1050.47 242.54C1050.47 253.54 1044.76 273.9 1017.71 273.9H986.2C985.88 273.944 985.555 273.912 985.25 273.809C984.945 273.706 984.668 273.533 984.441 273.304C984.214 273.075 984.044 272.796 983.943 272.49C983.842 272.184 983.813 271.859 983.86 271.54V211.47ZM961.06 296.71H1017.28C1050.16 296.71 1073.19 276.13 1073.19 242.71C1073.19 221.5 1063.6 203.18 1045.38 193.87C1052.17 185.74 1059.97 177.44 1059.97 154.97C1059.97 122.63 1037.33 102.26 1003.97 102.26H960.97V296.75L961.06 296.71Z" fill="white"/>
<path fill-rule="evenodd" clip-rule="evenodd" d="M1095.43 264.53C1098.2 281.88 1117.32 298.94 1144.95 298.94C1174.68 298.94 1199.95 274.94 1199.95 244.68C1199.95 223.79 1191.09 207.86 1171.95 196.63C1160.95 190.36 1140.38 181.49 1131.17 176.53C1123.01 172.09 1117.17 165.82 1117.17 151.46C1117.17 136.57 1131.65 122.73 1147.43 122.73C1157.69 122.73 1167.96 128.22 1172.43 136.57L1193.33 125.87C1188.52 117.946 1181.74 111.404 1173.65 106.883C1165.56 102.361 1156.44 100.014 1147.17 100.07C1133.22 100.12 1119.85 105.689 1109.99 115.561C1100.12 125.433 1094.57 138.806 1094.53 152.76C1094.53 185.66 1115.66 195.59 1143.53 208.12C1158.26 215.12 1177.47 224.57 1177.47 244.42C1177.47 262.18 1161.47 276.28 1145.37 276.28C1131.95 276.28 1122.21 270.79 1117.21 260.61L1095.43 264.53Z" fill="white"/>
<path fill-rule="evenodd" clip-rule="evenodd" d="M22.8 296.75V138.26L76.16 296.75H94.29C94.55 295.45 147.58 138.52 147.58 139.04V296.75H170.38V102.26H137.38L85.47 254.26C85.47 254.78 85.21 255.12 84.96 255.12C84.71 255.12 84.7 254.78 84.44 254.26L32.71 102.26H0V296.75H22.8Z" fill="white"/>
<path fill-rule="evenodd" clip-rule="evenodd" d="M274.28 145.27C274.54 144.76 274.54 144.5 274.8 144.5C275.06 144.5 275.31 144.76 275.31 145.27L303.56 227.52C303.56 227.78 303.82 227.96 303.82 228.22C303.82 229 303.3 229.52 302.01 229.52H247.32C247.147 229.529 246.975 229.501 246.814 229.439C246.653 229.376 246.506 229.281 246.385 229.158C246.263 229.035 246.168 228.888 246.107 228.727C246.046 228.565 246.02 228.393 246.03 228.22C246.013 228.091 246.028 227.96 246.073 227.838C246.118 227.716 246.193 227.607 246.29 227.52L274.28 145.27ZM266 102.34L197.82 296.75H222.18L237 254.25C237.26 252.93 238 252.33 239.59 252.33H310C310.279 252.301 310.562 252.328 310.831 252.409C311.1 252.49 311.35 252.624 311.566 252.803C311.783 252.981 311.962 253.201 312.093 253.45C312.224 253.698 312.305 253.97 312.33 254.25L326.85 296.75H351.73L283.09 102.26H266V102.34Z" fill="white"/>
<path fill-rule="evenodd" clip-rule="evenodd" d="M400.74 296.67V102.26H377.95V296.75H400.31L400.74 296.67Z" fill="white"/>
<path fill-rule="evenodd" clip-rule="evenodd" d="M458.33 296.75V140.16C458.33 139.16 458.64 138.92 458.9 138.92C459.16 138.92 459.42 139.25 459.68 139.77L553.61 296.77H581.92V102.26H559.12V260.26C559.12 260.78 559.12 260.85 558.86 260.85C558.6 260.85 558.54 260.52 558.28 260L463.83 102.26H435.54V296.75H458.33Z" fill="white"/>
<path fill-rule="evenodd" clip-rule="evenodd" d="M612.26 269.14C619.78 286.47 636.26 298.81 656.73 298.81C662.953 298.854 669.123 297.66 674.88 295.298C680.638 292.935 685.868 289.451 690.267 285.049C694.666 280.646 698.145 275.413 700.503 269.654C702.86 263.894 704.049 257.723 704 251.5V101.86H681V251C681 264.75 669.86 276.12 656.38 276.12C645.75 276.12 637.66 269.12 633.77 260.03L612.26 269.14Z" fill="white"/>
<path fill-rule="evenodd" clip-rule="evenodd" d="M983.86 127.47C983.86 125.9 983.96 125.07 985.52 125.07H1004.52C1031.59 125.07 1037.32 144.59 1037.32 155.83C1037.32 167.07 1031.59 187.5 1004.52 187.5H985.42C984.42 187.5 983.86 186.98 983.86 185.67V127.47ZM983.86 211.47C983.86 210.68 983.7 210.53 984.75 210.27H1017.75C1044.75 210.27 1050.47 231.54 1050.47 242.54C1050.47 253.54 1044.76 273.9 1017.71 273.9H986.2C985.88 273.944 985.555 273.912 985.25 273.809C984.945 273.706 984.668 273.533 984.441 273.304C984.214 273.075 984.044 272.796 983.943 272.49C983.842 272.184 983.813 271.859 983.86 271.54V211.47ZM961.06 296.71H1017.28C1050.16 296.71 1073.19 276.13 1073.19 242.71C1073.19 221.5 1063.6 203.18 1045.38 193.87C1052.17 185.74 1059.97 177.44 1059.97 154.97C1059.97 122.63 1037.33 102.26 1003.97 102.26H960.97V296.75L961.06 296.71Z" fill="white"/>
<path fill-rule="evenodd" clip-rule="evenodd" d="M1095.43 264.53C1098.2 281.88 1117.32 298.94 1144.95 298.94C1174.68 298.94 1199.95 274.94 1199.95 244.68C1199.95 223.79 1191.09 207.86 1171.95 196.63C1160.95 190.36 1140.38 181.49 1131.17 176.53C1123.01 172.09 1117.17 165.82 1117.17 151.46C1117.17 136.57 1131.65 122.73 1147.43 122.73C1157.69 122.73 1167.96 128.22 1172.43 136.57L1193.33 125.87C1188.52 117.946 1181.74 111.404 1173.65 106.883C1165.56 102.361 1156.44 100.014 1147.17 100.07C1133.22 100.12 1119.85 105.689 1109.99 115.561C1100.12 125.433 1094.57 138.806 1094.53 152.76C1094.53 185.66 1115.66 195.59 1143.53 208.12C1158.26 215.12 1177.47 224.57 1177.47 244.42C1177.47 262.18 1161.47 276.28 1145.37 276.28C1131.95 276.28 1122.21 270.79 1117.21 260.61L1095.43 264.53Z" fill="white"/>
<path fill-rule="evenodd" clip-rule="evenodd" d="M35.4698 38.7101V47.6201H63.7598V59.7301C60.2398 65.8901 51.3798 71.0001 40.4898 71.0001C23.2998 71.0001 9.19981 56.4301 9.19981 39.6101C9.19981 22.7901 23.2998 8.90011 40.4898 8.90011C47.7836 8.73855 54.8888 11.2254 60.4898 15.9001L66.8598 9.19011C59.4464 3.08109 50.0943 -0.178148 40.4898 0.000107053C17.8498 0.000107053 0.299815 17.4001 0.299815 39.6101C0.241023 44.9071 1.23997 50.1625 3.23814 55.0685C5.23631 59.9745 8.1935 64.4323 11.9365 68.1809C15.6794 71.9294 20.1328 74.8932 25.0358 76.8987C29.9388 78.9042 35.1928 79.911 40.4898 79.8601C56.9998 79.8601 68.2598 72.0001 72.6598 62.4801V38.7101H35.4698Z" fill="white"/>
<path fill-rule="evenodd" clip-rule="evenodd" d="M107.9 10.7101C107.873 10.5774 107.878 10.4401 107.915 10.3098C107.952 10.1795 108.02 10.0601 108.114 9.96187C108.207 9.86363 108.323 9.78943 108.451 9.74559C108.579 9.70176 108.716 9.68959 108.85 9.71013H118.52C130.18 9.76013 134 18.4901 134 24.7001C134 31.8501 129.79 39.6301 118.55 39.6301H108.88C108.25 39.6301 107.93 39.4201 107.93 38.8901L107.9 10.7101ZM147.84 78.3101L129.55 47.0001C129.537 46.8656 129.56 46.7301 129.616 46.6073C129.672 46.4844 129.76 46.3785 129.87 46.3001C138.42 42.0001 142.87 34.3001 142.87 24.8801C142.87 10.6801 133.44 0.880127 118.62 0.880127H99V78.3101H107.9V49.1501C107.888 49.065 107.896 48.9783 107.924 48.8969C107.951 48.8155 107.998 48.7417 108.059 48.6815C108.12 48.6212 108.195 48.5761 108.276 48.5498C108.358 48.5235 108.445 48.5168 108.53 48.5301H118.1C118.331 48.5126 118.562 48.5617 118.766 48.6716C118.97 48.7815 119.138 48.9476 119.25 49.1501L137 78.3101H147.84Z" fill="white"/>
<path fill-rule="evenodd" clip-rule="evenodd" d="M174 56.8601C174 69.7101 184 79.5601 197.23 79.5601C210.16 79.5601 220.46 69.8201 220.46 57.1801V0.860107H211.56V56.4501C211.587 58.3335 211.235 60.203 210.522 61.9468C209.81 63.6906 208.754 65.2727 207.416 66.5985C206.078 67.9243 204.486 68.9665 202.736 69.6627C200.986 70.3589 199.113 70.6947 197.23 70.6501C188.94 70.6501 182.9 63.9701 182.9 55.9201V0.860107H174V56.8601Z" fill="white"/>
<path fill-rule="evenodd" clip-rule="evenodd" d="M263.7 10.6901C263.7 10.0701 264.03 9.76011 264.7 9.76011H272.2C283.51 9.76011 285.9 19.2501 285.9 23.6901C285.9 28.1301 283.51 38.3301 272.2 38.3301H264.7C264.05 38.3301 263.7 38.1301 263.7 37.6101V10.6901ZM263.7 78.3101V47.8701C263.7 47.4501 263.92 47.2401 264.36 47.2401H272C285.91 47.2401 294.82 36.8901 294.82 23.7901C294.82 10.6901 285.88 0.860107 272 0.860107H254.8V78.3101H263.7Z" fill="white"/>
<path fill-rule="evenodd" clip-rule="evenodd" d="M321.25 39.93C321.25 22.77 335 8.93 351.76 8.93C355.8 8.96008 359.794 9.78595 363.515 11.3604C367.235 12.9348 370.609 15.227 373.444 18.1059C376.278 20.9848 378.517 24.394 380.033 28.1387C381.55 31.8834 382.313 35.8901 382.28 39.93C382.28 56.93 368.63 70.93 351.76 70.93C334.89 70.93 321.25 57 321.25 39.93ZM312.35 39.93C312.35 62.38 329.69 79.86 351.76 79.86C373.83 79.86 391.19 62.38 391.19 39.93C391.19 17.48 373.84 0 351.76 0C329.68 0 312.35 17.48 312.35 39.93Z" fill="white"/>
<path d="M832.59 299C813.243 299 794.331 293.263 778.244 282.514C762.158 271.766 749.62 256.489 742.216 238.614C734.812 220.74 732.875 201.072 736.65 182.096C740.424 163.121 749.741 145.691 763.421 132.011C777.101 118.331 794.531 109.014 813.506 105.24C832.482 101.465 852.15 103.402 870.024 110.806C887.898 118.21 903.176 130.748 913.924 146.834C924.673 162.921 930.41 181.833 930.41 201.18C930.381 227.115 920.066 251.979 901.727 270.317C883.389 288.656 858.525 298.971 832.59 299ZM832.59 109.36C814.43 109.36 796.677 114.745 781.578 124.835C766.478 134.924 754.709 149.264 747.759 166.042C740.81 182.82 738.991 201.282 742.534 219.093C746.077 236.905 754.822 253.265 767.664 266.107C780.505 278.948 796.866 287.693 814.677 291.236C832.488 294.779 850.95 292.96 867.728 286.011C884.506 279.061 898.846 267.292 908.936 252.193C919.025 237.093 924.41 219.34 924.41 201.18C924.391 176.831 914.713 153.484 897.498 136.263C880.283 119.043 856.939 109.357 832.59 109.33V109.36Z" fill="white"/>
<path fill-rule="evenodd" clip-rule="evenodd" d="M838.42 216.39C837.64 214.75 837.07 213.21 836.42 212.7C835.42 211.99 833.9 212.07 833.63 213.45C831.8 215.08 830.63 219.34 830.33 219.93C829.14 222.32 828.02 224.81 826.72 227.61C826.07 229.02 825.14 230.51 824.29 231.94C823.29 233.75 821.85 235.71 821.12 237.72C820.45 239.54 820.55 243.16 819.96 244.78L807.76 272.22L804.34 281.94C804.04 283.35 803.56 284.68 803.39 286.04C803.435 287.142 803.361 288.245 803.17 289.33C803.05 289.838 802.761 290.289 802.35 290.611C801.939 290.933 801.431 291.105 800.91 291.1L792.6 288C791.42 287.67 791.6 286.55 791.89 285.79C791.96 285.59 793.1 283.95 793.54 283.02C793.71 282.55 794.02 282.02 794.22 281.44C794.78 280.22 796.45 278.88 796.77 277.69L797.68 276.08L798.37 274.16C799.37 270.09 800.66 265.77 801.6 261.67C802.36 258.67 803.55 252.72 803.6 252.53L811.45 235.32L812.77 226.91L816.98 215.31L819.77 209.4C820.31 208.3 820.7 204.91 821.24 203.75C821.44 202.02 821.51 199.05 821.71 197.21C821.83 196.332 821.897 195.447 821.91 194.56C821.91 194.05 822.01 193.56 822.01 193.03C822.42 190.58 823.43 185.79 823.43 185.58C823.473 183.744 823.406 181.908 823.23 180.08C822.939 178.741 822.496 177.439 821.91 176.2C820.38 171.92 819.68 167.54 818.26 163.35C817.98 162.35 814.78 157.8 813.87 156.73C813.62 156.2 804.24 151.63 800.14 150.13C799.85 150.03 797.02 149.21 796.73 149.13C796.071 148.778 795.382 148.487 794.67 148.26L781.27 141.42C778.67 140.57 776.49 140.63 774.1 139.76C773.82 139.67 771.02 138.31 768.78 137.07C768.52 136.994 768.283 136.857 768.086 136.671C767.89 136.485 767.74 136.255 767.65 136C767.4 135.45 767.32 135.32 767.32 135.32C767.32 135.32 767.56 135.61 767.62 134.9C766.97 134.01 765.08 133.9 765.53 132.62C765.64 132.33 765.82 132.4 765.9 132.21C765.98 132.02 765.64 131.14 765.74 130.85C765.84 130.56 766 130.4 766.84 130.17C766.777 130.07 766.737 129.956 766.725 129.838C766.713 129.72 766.728 129.601 766.77 129.49C766.84 129.3 766.93 129.34 767.07 129.27C768.57 129.61 771.55 129.72 771.84 129.82L775.36 131.12C776.47 131.63 775.74 131.36 778.36 132.53C779.03 132.77 779.52 133.53 780.22 133.97C781.042 134.67 781.953 135.259 782.93 135.72C783.12 135.79 783.6 135.96 785.44 136.52L798.27 139.59C799.599 140.113 800.89 140.731 802.13 141.44C803.3 142.08 805.47 143.53 805.67 143.59C805.87 143.65 808.67 143.81 810.06 144.01C814.15 144.64 815.06 144.68 815.21 144.75C817.049 144.799 818.883 144.969 820.7 145.26C821.77 145.18 822.48 145.13 823.55 145.02C824.62 144.91 825.69 144.51 826.7 144.51C827.548 144.543 828.397 144.476 829.23 144.31C829.64 144.11 829.44 143.39 829.74 142.98V139.51C829.64 139.21 829.84 138.59 829.53 138.29C828.83 137.29 827.61 136.55 827 135.54C826.199 133.728 825.686 131.801 825.48 129.83C825.08 127.59 824.67 123.1 824.67 122.9C824.775 121.961 824.98 121.036 825.28 120.14C825.664 118.68 826.475 117.367 827.61 116.37C828.186 115.979 828.799 115.644 829.44 115.37C831.408 114.194 833.639 113.53 835.93 113.44C838.57 113.44 843.54 115.28 844.86 118.74C845.438 120.517 845.678 122.385 845.57 124.25C845.57 128.25 844.96 128.84 843.44 133.63C843.24 134.14 842.52 134.76 842.32 135.26C841.661 136.779 841.185 138.37 840.9 140C840.9 141 841.1 143.37 842.43 143.88C844.346 144.777 846.359 145.448 848.43 145.88C849.469 145.821 850.511 145.821 851.55 145.88C855.03 145.88 855.64 146.99 858.11 146.08C858.11 146.08 859.85 146.08 861.2 145.88C864.72 145.46 866.1 145.71 868.67 144.77L873.67 142.77C874.87 142.302 876.103 141.924 877.36 141.64C880.65 140.88 887.47 139.46 887.76 139.36C889.137 138.665 890.417 137.795 891.57 136.77C892.844 135.767 894.296 135.014 895.85 134.55C896.14 134.45 898.59 133.77 899.85 133.55C900.726 133.313 901.632 133.202 902.54 133.22C903.159 133.697 903.696 134.271 904.13 134.92C904.19 135.1 904.07 135.36 904.02 135.82C903.92 135.82 904.18 135.97 904.25 136.17C904.6 137.17 903.14 137.55 903.04 137.59C903.68 138.77 901.97 139.4 901.33 139.74C900.33 140.21 898.39 141.14 898.1 141.25L890.87 143.34C884.72 146.02 883.14 148.23 877.8 150.18L867.75 153.75L859.15 157.48L852 160.16C851.555 160.468 851.193 160.881 850.947 161.363C850.701 161.844 850.578 162.379 850.59 162.92C850.552 164.083 850.415 165.241 850.18 166.38C850.07 167.1 846.52 176.88 846.52 179.23L847.74 189.13L847.67 204.96L851.42 213.39L856.18 227.71C856.4 228.6 856.74 229.56 856.9 230.59C857.27 232.52 857.9 236.18 858.05 236.47L861.85 243.97C862.04 244.77 868.27 268.54 870.04 273.42C870.907 275.707 872.056 277.877 873.46 279.88C874.13 280.88 875.39 281.34 876.16 282.26C876.749 283.034 877.264 283.861 877.7 284.73C877.82 285.26 877.82 285.81 877.7 286.34C877.466 286.831 877.085 287.236 876.61 287.5L868.13 290.61C866.53 290.97 866.45 290.13 866.2 289.47C865.65 287.93 866.2 288.36 865.81 286.57C865.54 284.93 865.26 281.78 865.15 281.5L854.68 260.04L851.59 251.51L849.66 244.4L849 242.58C847.86 240.58 846.58 238.58 845.59 236.45C843.96 233.14 841.12 226.45 841.04 226.28L840 222.92L838.42 216.39Z" fill="white"/>
<path fill-rule="evenodd" clip-rule="evenodd" d="M844.86 118.66C845.438 120.437 845.679 122.305 845.57 124.17C845.57 128.17 844.96 128.76 843.44 133.55C843.24 134.06 842.52 134.68 842.32 135.18C841.656 136.724 841.179 138.342 840.9 140C840.9 141 841.1 143.37 842.43 143.88C844.82 144.978 847.34 145.764 849.93 146.22C851.66 146.63 853.59 146.43 855.41 147.14C858.65 148.37 858.86 149.59 861.5 149.59L868.91 148.98C870.262 148.937 871.612 149.109 872.91 149.49C876.36 150.3 877.58 151.02 880.32 151.02L885.7 150.82C886.987 150.79 888.274 150.857 889.55 151.02C892.9 151.43 899.8 152.44 900.11 152.44C901.639 152.261 903.138 151.885 904.57 151.32C906.107 150.818 907.726 150.611 909.34 150.71C909.64 150.71 912.18 150.91 913.5 151.12C914.405 151.198 915.293 151.403 916.14 151.73C916.557 152.39 916.864 153.112 917.05 153.87C917.05 154.08 916.85 154.28 916.64 154.69C916.55 154.69 916.75 154.89 916.75 155.09C916.75 156.09 915.22 156.01 915.13 156.01C915.33 157.34 913.5 157.34 912.78 157.44C911.67 157.54 909.55 157.75 909.24 157.75L901.73 157.24C895.03 157.64 892.8 159.17 887.12 159.17L876.46 159.08L858.7 160.6L852.62 160.09C852.51 160.09 852.21 160 852.11 160.09C851.665 160.398 851.303 160.811 851.057 161.293C850.811 161.774 850.689 162.309 850.7 162.85C850.662 164.013 850.525 165.171 850.29 166.31C850.18 167.03 846.63 176.81 846.63 179.16L847.85 189.06V202.82L848.97 218.52L848.56 233.61C848.46 234.53 848.46 235.56 848.26 236.61C847.95 238.55 847.34 242.22 847.34 242.53L848.34 250.89C848.24 251.7 846.01 276.18 846.01 281.38C846.043 283.822 846.379 286.251 847.01 288.61C847.31 289.73 848.33 290.61 848.73 291.78C849.02 292.709 849.225 293.663 849.34 294.63C849.282 295.173 849.112 295.697 848.84 296.17C848.447 296.539 847.952 296.783 847.42 296.87H838.42C836.8 296.67 837 295.87 837 295.14C837 293.51 837.41 294.14 837.61 292.29C837.92 290.65 838.73 287.6 838.73 287.29L836.19 263.54V254.45L836.8 247.11V245.18C836.39 242.94 835.89 240.59 835.69 238.25C835.28 234.57 834.87 227.33 834.87 227.12V223.66L835.87 213.47C835.98 213.16 835.35 212.54 834.87 212.54C834.57 212.54 834.57 212.65 834.47 212.74C834.36 214.07 833.83 218.86 833.73 220.19C833.42 222.85 833.22 225.59 832.96 228.66C832.82 230.2 832.45 231.92 832.15 233.56C831.659 235.703 831.325 237.879 831.15 240.07C831.15 242.02 832.47 245.38 832.47 247.07L830.34 277.07L830.44 287.37C830.64 288.8 830.64 290.23 830.95 291.55C831.36 292.573 831.665 293.635 831.86 294.72C831.922 295.239 831.805 295.763 831.528 296.207C831.252 296.65 830.833 296.987 830.34 297.16L821.51 297.06C820.29 297.16 820.09 296.06 820.09 295.23C820.09 295.02 820.6 293.08 820.7 292.06C820.7 291.55 820.8 290.94 820.8 290.33C820.9 289 822.02 287.17 821.92 285.94L822.23 284.11V282.11C821.82 277.93 821.51 273.44 821.01 269.26C820.7 266.21 819.79 260.19 819.79 259.98L821.22 241L819.59 232.63V220.32L820.2 213.8C820.4 211.97 820.51 210.03 820.71 208.09C820.91 206.15 821.01 204.42 821.22 202.59C821.43 200.76 821.53 199.02 821.73 197.18C821.851 196.302 821.917 195.417 821.93 194.53C821.93 194.02 822.03 193.53 822.03 193C822.44 190.55 823.45 185.76 823.45 185.55C823.494 183.714 823.427 181.878 823.25 180.05C822.959 178.711 822.516 177.409 821.93 176.17C820.4 171.89 819.7 167.51 818.28 163.32C817.87 161.79 816.28 159.86 815.03 158.63C814.544 158.298 813.985 158.089 813.4 158.02C812.4 157.82 811.4 157.61 810.4 157.51L804.82 157.61C800.44 157.01 795.88 156.18 791.52 156.18C791.22 156.18 788.27 156.39 787.97 156.39C787.227 156.299 786.478 156.266 785.73 156.29L770.82 154.45C768.08 154.56 766.05 155.37 763.52 155.37C763.21 155.37 760.13 155.06 757.59 154.66C757.322 154.68 757.053 154.636 756.805 154.529C756.558 154.423 756.34 154.259 756.17 154.05C755.74 153.62 755.63 153.53 755.64 153.52C755.65 153.51 755.96 153.72 755.76 153.03C754.85 152.41 753.03 152.92 753.03 151.6C753.03 151.29 753.23 151.29 753.23 151.09C753.23 150.89 752.62 150.17 752.62 149.87C752.62 149.57 752.72 149.36 753.43 148.87C753.333 148.802 753.253 148.71 753.199 148.604C753.145 148.497 753.118 148.379 753.12 148.26C753.12 148.06 753.23 148.06 753.33 147.95C754.85 147.75 757.7 146.83 758 146.83H761.75C762.97 146.94 762.19 146.93 765.04 147.13C765.807 147.29 766.555 147.531 767.27 147.85C768.283 148.229 769.343 148.467 770.42 148.56C770.62 148.56 771.12 148.56 773.06 148.46L786.14 146.93C787.572 146.963 788.999 147.1 790.41 147.34C791.72 147.54 794.25 148.15 794.41 148.15C794.57 148.15 797.25 147.34 798.67 147.03C802.73 146.21 801.61 146.42 804.67 146.42H807.2C808.83 146.52 811.97 146.93 812.2 146.93C814.07 146.353 815.97 145.876 817.89 145.5C819.61 145.2 821.64 145.2 823.57 144.99C824.57 144.89 825.71 144.48 826.72 144.48C827.568 144.513 828.418 144.446 829.25 144.28C829.66 144.08 829.46 143.36 829.76 142.95V139.48C829.66 139.18 829.86 138.56 829.55 138.26C828.85 137.26 827.63 136.52 827.02 135.51C826.219 133.698 825.706 131.771 825.5 129.8C825.1 127.56 824.69 123.07 824.69 122.87C824.796 121.931 825 121.006 825.3 120.11C825.684 118.65 826.496 117.337 827.63 116.34C828.207 115.949 828.819 115.614 829.46 115.34C831.428 114.164 833.659 113.5 835.95 113.41C838.57 113.36 843.54 115.2 844.86 118.66Z" fill="white"/>
</svg>
