<svg width="3167" height="822" viewBox="0 0 3167 822" fill="none" xmlns="http://www.w3.org/2000/svg">
<path fill-rule="evenodd" clip-rule="evenodd" d="M95.2677 104.707V128.804H171.894V161.555C162.359 178.214 138.361 192.034 108.865 192.034C62.3041 192.034 24.1131 152.63 24.1131 107.141C24.1131 61.6529 62.3041 24.0883 108.865 24.0883C128.62 23.6513 147.866 30.3768 163.036 43.0193L180.29 24.8725C160.21 8.3511 134.879 -0.463303 108.865 0.0187769C47.5424 0.0187769 0.00664193 47.076 0.00664193 107.141C-0.152603 121.467 2.55314 135.68 7.96535 148.948C13.3776 162.216 21.3874 174.272 31.5255 184.409C41.6636 194.547 53.7261 202.562 67.0063 207.986C80.2865 213.41 94.5172 216.133 108.865 215.995C153.584 215.995 184.082 194.738 196 168.992V104.707H95.2677Z" fill="white"/>
<path fill-rule="evenodd" clip-rule="evenodd" d="M292.054 28.6602C291.98 28.3003 291.994 27.9277 292.095 27.5744C292.195 27.221 292.379 26.8973 292.632 26.6308C292.884 26.3644 293.197 26.1632 293.543 26.0443C293.89 25.9254 294.26 25.8924 294.622 25.9481H320.757C352.27 26.0837 362.595 49.7606 362.595 66.6029C362.595 85.9946 351.216 107.095 320.838 107.095H294.703C293 107.095 292.135 106.525 292.135 105.088L292.054 28.6602ZM400 212L350.568 127.083C350.533 126.719 350.595 126.351 350.747 126.018C350.898 125.685 351.135 125.397 351.432 125.185C374.541 113.523 386.568 92.6393 386.568 67.091C386.568 28.5788 361.081 2 321.027 2H268V212H292.054V132.914C292.022 132.684 292.044 132.448 292.118 132.228C292.193 132.007 292.318 131.807 292.483 131.643C292.649 131.48 292.85 131.358 293.071 131.286C293.293 131.215 293.527 131.197 293.757 131.233H319.622C320.246 131.185 320.87 131.318 321.421 131.616C321.972 131.915 322.426 132.365 322.73 132.914L370.703 212H400Z" fill="white"/>
<path fill-rule="evenodd" clip-rule="evenodd" d="M471 154.274C471 189.216 498.12 216 534 216C569.066 216 597 189.515 597 155.145V2H572.863V153.16C572.937 158.281 571.98 163.364 570.049 168.106C568.118 172.848 565.252 177.15 561.624 180.755C557.995 184.36 553.679 187.194 548.932 189.087C544.186 190.98 539.107 191.893 534 191.772C511.517 191.772 495.137 173.608 495.137 151.718V2H471V154.274Z" fill="white"/>
<path fill-rule="evenodd" clip-rule="evenodd" d="M714.24 28.6533C714.24 26.9722 715.139 26.1317 716.964 26.1317H737.391C768.196 26.1317 774.705 51.8631 774.705 63.9019C774.705 75.9406 768.196 103.597 737.391 103.597H716.964C715.194 103.597 714.24 103.055 714.24 101.645V28.6533ZM714.24 212V129.464C714.24 128.325 714.84 127.756 716.038 127.756H736.847C774.732 127.756 799 99.6927 799 64.173C799 28.6533 774.651 2 736.847 2H690V212H714.24Z" fill="white"/>
<path fill-rule="evenodd" clip-rule="evenodd" d="M870.158 108C870.158 61.5868 907.48 24.1533 952.973 24.1533C963.939 24.2346 974.781 26.4684 984.88 30.7268C994.979 34.9853 1004.14 41.185 1011.83 48.9717C1019.52 56.7584 1025.6 65.9793 1029.72 76.1077C1033.83 86.2361 1035.9 97.0733 1035.82 108C1035.82 153.98 998.764 191.847 952.973 191.847C907.182 191.847 870.158 154.17 870.158 108ZM846 108C846 168.721 893.067 216 952.973 216C1012.88 216 1060 168.721 1060 108C1060 47.2787 1012.91 0 952.973 0C893.04 0 846 47.2787 846 108Z" fill="white"/>
<path fill-rule="evenodd" clip-rule="evenodd" d="M63.1234 812.531V393.706L203.797 812.872H251.46C252.141 809.457 391.929 394.389 391.929 395.755V812.872H452.053V298.084H365.17L228.173 700.311C228.173 701.677 227.492 702.565 226.879 702.565C226.267 702.565 226.199 701.677 225.45 700.311L89.2017 298.084H3V812.462H63.1234V812.531Z" fill="white"/>
<path fill-rule="evenodd" clip-rule="evenodd" d="M726.182 411.943C726.863 410.577 726.863 409.894 727.544 409.894C728.225 409.894 728.906 410.577 728.906 411.943L803.328 629.483C803.328 630.166 804.077 630.644 804.077 631.327C804.077 633.376 802.647 634.742 799.243 634.742H655.097C654.642 634.772 654.186 634.705 653.759 634.544C653.332 634.383 652.945 634.132 652.623 633.809C652.3 633.485 652.05 633.097 651.89 632.669C651.729 632.241 651.662 631.783 651.692 631.327C651.648 630.987 651.688 630.642 651.806 630.321C651.925 630 652.119 629.712 652.373 629.483L726.182 411.943ZM704.258 298.084L524.568 812.257H589.049L628.065 699.902C628.746 696.418 630.72 694.779 634.874 694.779H820.555C821.298 694.704 822.048 694.777 822.763 694.994C823.477 695.211 824.142 695.568 824.718 696.045C825.294 696.521 825.77 697.107 826.119 697.769C826.468 698.431 826.683 699.156 826.751 699.902L865.018 812.257H930.588L749.401 298.084H704.258V298.084Z" fill="white"/>
<path fill-rule="evenodd" clip-rule="evenodd" d="M1059.62 812.394V298.153H999.495V812.599H1058.46L1059.62 812.394Z" fill="white"/>
<path fill-rule="evenodd" clip-rule="evenodd" d="M1211.46 812.531V398.419C1211.46 395.824 1212.28 395.141 1212.96 395.141C1213.64 395.141 1214.32 395.96 1215 397.394L1462.64 812.531H1537.54V298.084H1477.49V716.089C1477.49 717.455 1477.49 717.66 1476.74 717.66C1475.99 717.66 1475.92 716.772 1475.24 715.406L1225.96 298.084H1151.06V812.462H1211.19L1211.46 812.531Z" fill="white"/>
<path fill-rule="evenodd" clip-rule="evenodd" d="M1617.21 739.517C1626.84 762.752 1643.11 782.606 1663.98 796.573C1684.85 810.54 1709.37 817.994 1734.46 817.995C1750.87 818.113 1767.14 814.957 1782.32 808.709C1797.51 802.462 1811.3 793.249 1822.9 781.605C1834.5 769.961 1843.68 756.12 1849.9 740.885C1856.12 725.651 1859.26 709.328 1859.13 692.867V297.128H1798.46V691.637C1798.54 709.05 1791.77 725.79 1779.62 738.23C1767.47 750.67 1750.93 757.807 1733.57 758.095C1705.52 758.095 1684.21 739.516 1673.93 715.543L1617.21 739.517Z" fill="white"/>
<path fill-rule="evenodd" clip-rule="evenodd" d="M2597.09 364.814C2597.09 360.716 2597.09 358.462 2601.45 358.462H2651.56C2722.92 358.462 2738.03 410.098 2738.03 439.878C2738.03 469.657 2722.92 523.479 2651.56 523.479H2601.17C2598.45 523.479 2597.09 522.113 2597.09 518.629V364.814ZM2597.09 587.136C2597.09 585.018 2596.68 584.608 2599.4 583.925H2686.56C2757.78 583.925 2772.83 640.206 2772.83 669.302C2772.83 698.399 2757.78 752.22 2686.42 752.22H2603.22C2602.38 752.335 2601.53 752.253 2600.72 751.981C2599.92 751.708 2599.2 751.252 2598.6 750.649C2598.01 750.046 2597.56 749.312 2597.3 748.506C2597.04 747.7 2596.96 746.844 2597.09 746.005V587.136ZM2536.96 812.53H2685.2C2771.87 812.53 2832.61 757.889 2832.61 669.644C2832.61 613.5 2807.28 565.074 2759.28 540.486C2777.19 518.971 2797.75 496.978 2797.75 437.555C2797.75 352.042 2738.03 298.152 2650.2 298.152H2536.96V812.53V812.53Z" fill="white"/>
<path fill-rule="evenodd" clip-rule="evenodd" d="M2891.24 727.359C2898.52 773.258 2948.98 818.336 3021.83 818.336C3059.98 818.447 3096.64 803.438 3123.81 776.576C3150.99 749.713 3166.48 713.171 3166.93 674.903C3166.93 619.647 3143.58 577.505 3093.26 547.794C3064.12 531.265 3010.05 507.77 2985.74 494.656C2964.23 482.908 2948.98 466.311 2948.98 428.335C2948.98 388.993 2987.11 352.384 3028.71 352.384C3055.95 352.384 3083.18 366.864 3094.69 388.993L3149.77 360.648C3137.09 339.684 3119.21 322.372 3097.88 310.402C3076.54 298.432 3052.48 292.212 3028.03 292.347C2991.23 292.491 2955.99 307.231 2929.99 333.349C2903.99 359.467 2889.35 394.841 2889.26 431.75C2889.26 518.766 2944.96 544.994 3018.63 578.12C3057.44 596.766 3108.1 621.628 3108.1 674.152C3108.1 721.143 3065.82 758.436 3023.47 758.436C2988.06 758.436 2962.19 743.888 2949.25 716.977L2891.24 727.359Z" fill="white"/>
<path fill-rule="evenodd" clip-rule="evenodd" d="M2338.55 330.186C2298.62 304.738 2252.58 290.546 2205.29 289.1C2158 287.653 2111.2 299.005 2069.79 321.964C2028.38 344.923 1993.9 378.641 1969.96 419.579C1946.03 460.518 1933.52 507.165 1933.76 554.624C1933.65 592.545 1941.51 630.062 1956.84 664.726C1996.79 690.008 2042.78 704.075 2090 705.46C2137.22 706.845 2183.94 695.499 2225.3 672.602C2266.66 649.706 2301.14 616.1 2325.14 575.286C2349.15 534.473 2361.8 487.947 2361.77 440.561C2361.89 402.537 2353.98 364.919 2338.55 330.186Z" fill="#BFD2EA"/>
<path fill-rule="evenodd" clip-rule="evenodd" d="M2338.55 778.38C2298.62 803.851 2252.58 818.062 2205.29 819.52C2157.99 820.979 2111.17 809.63 2069.75 786.667C2028.34 763.703 1993.85 729.974 1969.92 689.022C1945.99 648.07 1933.5 601.409 1933.76 553.941C1933.65 516.043 1941.52 478.549 1956.84 443.908C1996.79 418.626 2042.78 404.559 2090 403.174C2137.22 401.788 2183.94 413.135 2225.3 436.031C2266.66 458.927 2301.14 492.534 2325.14 533.348C2349.15 574.161 2361.8 620.686 2361.77 668.073C2361.9 706.075 2353.98 743.672 2338.55 778.38V778.38Z" fill="#B8DDDC"/>
<path fill-rule="evenodd" clip-rule="evenodd" d="M2055.09 330.186C2095.03 304.738 2141.06 290.546 2188.35 289.1C2235.64 287.653 2282.45 299.005 2323.86 321.964C2365.26 344.923 2399.75 378.641 2423.68 419.579C2447.62 460.518 2460.12 507.165 2459.89 554.624C2460 592.545 2452.13 630.062 2436.8 664.726C2396.85 690.008 2350.87 704.075 2303.65 705.46C2256.43 706.845 2209.7 695.499 2168.34 672.602C2126.98 649.706 2092.5 616.1 2068.5 575.286C2044.5 534.473 2031.85 487.947 2031.87 440.561C2031.76 402.537 2039.67 364.919 2055.09 330.186V330.186Z" fill="#F6C59B"/>
<path fill-rule="evenodd" clip-rule="evenodd" d="M2055.09 778.38C2095.02 803.851 2141.06 818.062 2188.36 819.52C2235.66 820.979 2282.47 809.63 2323.89 786.667C2365.31 763.703 2399.79 729.974 2423.72 689.022C2447.65 648.07 2460.15 601.409 2459.89 553.941C2459.99 516.043 2452.13 478.549 2436.8 443.908C2396.85 418.626 2350.87 404.559 2303.65 403.174C2256.43 401.788 2209.7 413.135 2168.34 436.031C2126.98 458.927 2092.5 492.534 2068.5 533.348C2044.5 574.161 2031.85 620.686 2031.87 668.073C2031.75 706.075 2039.66 743.672 2055.09 778.38V778.38Z" fill="#F6EDBC"/>
<path fill-rule="evenodd" clip-rule="evenodd" d="M2056.73 554.283C2072.8 588.101 2095.82 618.126 2124.28 642.386C2152.74 666.645 2185.99 684.589 2221.86 695.04C2257.72 705.49 2295.38 708.21 2332.37 703.021C2369.36 697.832 2404.83 684.851 2436.46 664.931C2451.9 630.219 2459.88 592.635 2459.89 554.624V553.941C2459.88 515.953 2451.9 478.393 2436.46 443.703C2404.83 423.792 2369.36 410.816 2332.38 405.628C2295.4 400.44 2257.74 403.156 2221.88 413.599C2186.02 424.042 2152.77 441.975 2124.3 466.221C2095.84 490.467 2072.81 520.478 2056.73 554.283V554.283Z" fill="#DDB38D"/>
<path fill-rule="evenodd" clip-rule="evenodd" d="M2336.64 554.283C2320.58 588.101 2297.55 618.127 2269.09 642.386C2240.63 666.645 2207.38 684.589 2171.52 695.04C2135.65 705.49 2097.99 708.21 2061 703.021C2024.01 697.832 1988.54 684.851 1956.91 664.931C1941.43 630.23 1933.45 592.639 1933.48 554.624V553.941C1933.47 515.958 1941.43 478.398 1956.84 443.703C1988.47 423.791 2023.95 410.815 2060.94 405.626C2097.92 400.437 2135.58 403.153 2171.45 413.596C2207.32 424.038 2240.58 441.971 2269.05 466.218C2297.52 490.464 2320.55 520.476 2336.64 554.283V554.283Z" fill="#8AB9D6"/>
<path fill-rule="evenodd" clip-rule="evenodd" d="M2055.09 778.38C2097.38 805.281 2146.44 819.5 2196.52 819.361H2197.2C2247.25 819.498 2296.29 805.279 2338.55 778.38C2353.98 743.672 2361.9 706.075 2361.77 668.073C2362.23 615.131 2346.72 563.285 2317.3 519.335C2287.87 475.384 2245.89 441.379 2196.86 421.778C2147.81 441.368 2105.82 475.368 2076.38 519.32C2046.94 563.272 2031.42 615.123 2031.87 668.073C2031.75 706.075 2039.66 743.672 2055.09 778.38V778.38Z" fill="#D0DFAD"/>
<path fill-rule="evenodd" clip-rule="evenodd" d="M2336.64 554.283C2308.52 493.846 2258.44 446.47 2196.65 421.846C2143.3 443.867 2098.52 482.672 2069.05 532.424C2039.57 582.175 2027.01 640.182 2033.24 697.716C2054.4 702.955 2076.12 705.593 2097.92 705.57C2147.98 705.928 2197.08 691.862 2239.4 665.043C2281.72 638.225 2315.47 599.781 2336.64 554.283V554.283Z" fill="#A3B1A0"/>
<path fill-rule="evenodd" clip-rule="evenodd" d="M2056.73 554.283C2077.87 599.718 2111.56 638.118 2153.8 664.932C2196.04 691.746 2245.06 705.85 2295.04 705.57C2316.96 705.563 2338.79 702.903 2360.07 697.647C2361.08 687.822 2361.58 677.951 2361.56 668.073C2362.02 615.131 2346.52 563.285 2317.09 519.335C2287.66 475.384 2245.68 441.379 2196.65 421.778C2134.85 446.403 2084.79 493.812 2056.73 554.283V554.283Z" fill="#CFAB87"/>
<path fill-rule="evenodd" clip-rule="evenodd" d="M2055.09 330.186C2039.67 364.92 2031.76 402.537 2031.87 440.561C2031.42 493.511 2046.94 545.362 2076.38 589.314C2105.82 633.266 2147.81 667.266 2196.86 686.856C2245.89 667.255 2287.87 633.25 2317.3 589.299C2346.72 545.349 2362.23 493.503 2361.77 440.561C2361.89 402.537 2353.98 364.92 2338.55 330.186C2296.28 303.311 2247.24 289.094 2197.2 289.205H2196.52C2146.45 289.096 2097.39 303.313 2055.09 330.186Z" fill="#DBB39A"/>
<path fill-rule="evenodd" clip-rule="evenodd" d="M2031.87 440.561C2031.5 493.416 2047.02 545.156 2076.42 589.022C2105.82 632.888 2147.72 666.841 2196.65 686.446C2258.46 661.818 2308.55 614.412 2336.64 553.941C2315.49 508.519 2281.8 470.133 2239.56 443.331C2197.32 416.53 2148.31 402.437 2098.33 402.722C2076.53 402.7 2054.81 405.337 2033.64 410.577C2032.49 420.53 2031.9 430.541 2031.87 440.561V440.561Z" fill="#A79E94"/>
<path fill-rule="evenodd" clip-rule="evenodd" d="M2056.73 554.283C2084.81 614.826 2134.96 662.27 2196.86 686.856C2245.89 667.255 2287.87 633.25 2317.3 589.299C2346.72 545.348 2362.23 493.503 2361.77 440.561C2361.79 430.683 2361.29 420.811 2360.27 410.986C2338.99 405.731 2317.16 403.071 2295.25 403.063C2245.23 402.739 2196.18 416.813 2153.9 443.617C2111.62 470.421 2077.9 508.829 2056.73 554.283V554.283Z" fill="#CAA78D"/>
<path d="M2196.86 686.924C2274.25 686.924 2336.98 627.569 2336.98 554.351C2336.98 481.133 2274.25 421.778 2196.86 421.778C2119.46 421.778 2056.73 481.133 2056.73 554.351C2056.73 627.569 2119.46 686.924 2196.86 686.924Z" fill="#9A8E85"/>
<path fill-rule="evenodd" clip-rule="evenodd" d="M2338.55 330.186C2298.62 304.738 2252.58 290.546 2205.29 289.1C2158 287.653 2111.2 299.005 2069.79 321.964C2028.38 344.923 1993.9 378.641 1969.96 419.579C1946.03 460.518 1933.52 507.165 1933.76 554.624C1933.65 592.545 1941.51 630.062 1956.84 664.726C1996.79 690.008 2042.78 704.075 2090 705.46C2137.22 706.845 2183.94 695.499 2225.3 672.602C2266.66 649.706 2301.14 616.1 2325.14 575.286C2349.15 534.473 2361.8 487.947 2361.77 440.561C2361.89 402.537 2353.98 364.919 2338.55 330.186Z" fill="#BFD2EA"/>
<path fill-rule="evenodd" clip-rule="evenodd" d="M2338.55 778.38C2298.62 803.851 2252.58 818.062 2205.29 819.52C2157.99 820.979 2111.17 809.63 2069.75 786.667C2028.34 763.703 1993.85 729.974 1969.92 689.022C1945.99 648.07 1933.5 601.409 1933.76 553.941C1933.65 516.043 1941.52 478.549 1956.84 443.908C1996.79 418.626 2042.78 404.559 2090 403.174C2137.22 401.788 2183.94 413.135 2225.3 436.031C2266.66 458.927 2301.14 492.534 2325.14 533.348C2349.15 574.161 2361.8 620.686 2361.77 668.073C2361.9 706.075 2353.98 743.672 2338.55 778.38V778.38Z" fill="#B8DDDC"/>
<path fill-rule="evenodd" clip-rule="evenodd" d="M2055.09 330.186C2095.03 304.738 2141.06 290.546 2188.35 289.1C2235.64 287.653 2282.45 299.005 2323.86 321.964C2365.26 344.923 2399.75 378.641 2423.68 419.579C2447.62 460.518 2460.12 507.165 2459.89 554.624C2460 592.545 2452.13 630.062 2436.8 664.726C2396.85 690.008 2350.87 704.075 2303.65 705.46C2256.43 706.845 2209.7 695.499 2168.34 672.602C2126.98 649.706 2092.5 616.1 2068.5 575.286C2044.5 534.473 2031.85 487.947 2031.87 440.561C2031.76 402.537 2039.67 364.919 2055.09 330.186V330.186Z" fill="#F6C59B"/>
<path fill-rule="evenodd" clip-rule="evenodd" d="M2055.09 778.38C2095.02 803.851 2141.06 818.062 2188.36 819.52C2235.66 820.979 2282.47 809.63 2323.89 786.667C2365.31 763.703 2399.79 729.974 2423.72 689.022C2447.65 648.07 2460.15 601.409 2459.89 553.941C2459.99 516.043 2452.13 478.549 2436.8 443.908C2396.85 418.626 2350.87 404.559 2303.65 403.174C2256.43 401.788 2209.7 413.135 2168.34 436.031C2126.98 458.927 2092.5 492.534 2068.5 533.348C2044.5 574.161 2031.85 620.686 2031.87 668.073C2031.75 706.075 2039.66 743.672 2055.09 778.38V778.38Z" fill="#F6EDBC"/>
<path fill-rule="evenodd" clip-rule="evenodd" d="M2056.73 554.283C2072.8 588.101 2095.82 618.126 2124.28 642.386C2152.74 666.645 2185.99 684.589 2221.86 695.04C2257.72 705.49 2295.38 708.21 2332.37 703.021C2369.36 697.832 2404.83 684.851 2436.46 664.931C2451.9 630.219 2459.88 592.635 2459.89 554.624V553.941C2459.88 515.953 2451.9 478.393 2436.46 443.703C2404.83 423.792 2369.36 410.816 2332.38 405.628C2295.4 400.44 2257.74 403.156 2221.88 413.599C2186.02 424.042 2152.77 441.975 2124.3 466.221C2095.84 490.467 2072.81 520.478 2056.73 554.283V554.283Z" fill="#DDB38D"/>
<path fill-rule="evenodd" clip-rule="evenodd" d="M2336.64 554.283C2320.58 588.101 2297.55 618.127 2269.09 642.386C2240.63 666.645 2207.38 684.589 2171.52 695.04C2135.65 705.49 2097.99 708.21 2061 703.021C2024.01 697.832 1988.54 684.851 1956.91 664.931C1941.43 630.23 1933.45 592.639 1933.48 554.624V553.941C1933.47 515.958 1941.43 478.398 1956.84 443.703C1988.47 423.791 2023.95 410.815 2060.94 405.626C2097.92 400.437 2135.58 403.153 2171.45 413.596C2207.32 424.038 2240.58 441.971 2269.05 466.218C2297.52 490.464 2320.55 520.476 2336.64 554.283V554.283Z" fill="#8AB9D6"/>
<path fill-rule="evenodd" clip-rule="evenodd" d="M2055.09 778.38C2097.38 805.281 2146.44 819.5 2196.52 819.361H2197.2C2247.25 819.498 2296.29 805.279 2338.55 778.38C2353.98 743.672 2361.9 706.075 2361.77 668.073C2362.23 615.131 2346.72 563.285 2317.3 519.335C2287.87 475.384 2245.89 441.379 2196.86 421.778C2147.81 441.368 2105.82 475.368 2076.38 519.32C2046.94 563.272 2031.42 615.123 2031.87 668.073C2031.75 706.075 2039.66 743.672 2055.09 778.38V778.38Z" fill="#D0DFAD"/>
<path fill-rule="evenodd" clip-rule="evenodd" d="M2336.64 554.283C2308.52 493.846 2258.44 446.47 2196.65 421.846C2143.3 443.867 2098.52 482.672 2069.05 532.424C2039.57 582.175 2027.01 640.182 2033.24 697.716C2054.4 702.955 2076.12 705.593 2097.92 705.57C2147.98 705.928 2197.08 691.862 2239.4 665.043C2281.72 638.225 2315.47 599.781 2336.64 554.283V554.283Z" fill="#A3B1A0"/>
<path fill-rule="evenodd" clip-rule="evenodd" d="M2056.73 554.283C2077.87 599.718 2111.56 638.118 2153.8 664.932C2196.04 691.746 2245.06 705.85 2295.04 705.57C2316.96 705.563 2338.79 702.903 2360.07 697.647C2361.08 687.822 2361.58 677.951 2361.56 668.073C2362.02 615.131 2346.52 563.285 2317.09 519.335C2287.66 475.384 2245.68 441.379 2196.65 421.778C2134.85 446.403 2084.79 493.812 2056.73 554.283V554.283Z" fill="#CFAB87"/>
<path fill-rule="evenodd" clip-rule="evenodd" d="M2055.09 330.186C2039.67 364.92 2031.76 402.537 2031.87 440.561C2031.42 493.511 2046.94 545.362 2076.38 589.314C2105.82 633.266 2147.81 667.266 2196.86 686.856C2245.89 667.255 2287.87 633.25 2317.3 589.299C2346.72 545.349 2362.23 493.503 2361.77 440.561C2361.89 402.537 2353.98 364.92 2338.55 330.186C2296.28 303.311 2247.24 289.094 2197.2 289.205H2196.52C2146.45 289.096 2097.39 303.313 2055.09 330.186Z" fill="#DBB39A"/>
<path fill-rule="evenodd" clip-rule="evenodd" d="M2031.87 440.561C2031.5 493.416 2047.02 545.156 2076.42 589.022C2105.82 632.888 2147.72 666.841 2196.65 686.446C2258.46 661.818 2308.55 614.412 2336.64 553.941C2315.49 508.519 2281.8 470.133 2239.56 443.331C2197.32 416.53 2148.31 402.437 2098.33 402.722C2076.53 402.7 2054.81 405.337 2033.64 410.577C2032.49 420.53 2031.9 430.541 2031.87 440.561V440.561Z" fill="#A79E94"/>
<path fill-rule="evenodd" clip-rule="evenodd" d="M2056.73 554.283C2084.81 614.826 2134.96 662.27 2196.86 686.856C2245.89 667.255 2287.87 633.25 2317.3 589.299C2346.72 545.348 2362.23 493.503 2361.77 440.561C2361.79 430.683 2361.29 420.811 2360.27 410.986C2338.99 405.731 2317.16 403.071 2295.25 403.063C2245.23 402.739 2196.18 416.813 2153.9 443.617C2111.62 470.421 2077.9 508.829 2056.73 554.283V554.283Z" fill="#CAA78D"/>
<path d="M2196.86 686.924C2274.25 686.924 2336.98 627.569 2336.98 554.351C2336.98 481.133 2274.25 421.778 2196.86 421.778C2119.46 421.778 2056.73 481.133 2056.73 554.351C2056.73 627.569 2119.46 686.924 2196.86 686.924Z" fill="#9A8E85"/>
<path fill-rule="evenodd" clip-rule="evenodd" d="M2338.55 330.186C2298.62 304.738 2252.58 290.546 2205.29 289.1C2158 287.653 2111.2 299.005 2069.79 321.964C2028.38 344.923 1993.9 378.641 1969.96 419.579C1946.03 460.518 1933.52 507.165 1933.76 554.624C1933.65 592.545 1941.51 630.062 1956.84 664.726C1996.79 690.008 2042.78 704.075 2090 705.46C2137.22 706.845 2183.94 695.499 2225.3 672.602C2266.66 649.706 2301.14 616.1 2325.14 575.286C2349.15 534.473 2361.8 487.947 2361.77 440.561C2361.89 402.537 2353.98 364.919 2338.55 330.186Z" fill="#BFD2EA"/>
<path fill-rule="evenodd" clip-rule="evenodd" d="M2338.55 778.38C2298.62 803.851 2252.58 818.062 2205.29 819.52C2157.99 820.979 2111.17 809.63 2069.75 786.667C2028.34 763.703 1993.85 729.974 1969.92 689.022C1945.99 648.07 1933.5 601.409 1933.76 553.941C1933.65 516.043 1941.52 478.549 1956.84 443.908C1996.79 418.626 2042.78 404.559 2090 403.174C2137.22 401.788 2183.94 413.135 2225.3 436.031C2266.66 458.927 2301.14 492.534 2325.14 533.348C2349.15 574.161 2361.8 620.686 2361.77 668.073C2361.9 706.075 2353.98 743.672 2338.55 778.38V778.38Z" fill="#B8DDDC"/>
<path fill-rule="evenodd" clip-rule="evenodd" d="M2055.09 330.186C2095.03 304.738 2141.06 290.546 2188.35 289.1C2235.64 287.653 2282.45 299.005 2323.86 321.964C2365.26 344.923 2399.75 378.641 2423.68 419.579C2447.62 460.518 2460.12 507.165 2459.89 554.624C2460 592.545 2452.13 630.062 2436.8 664.726C2396.85 690.008 2350.87 704.075 2303.65 705.46C2256.43 706.845 2209.7 695.499 2168.34 672.602C2126.98 649.706 2092.5 616.1 2068.5 575.286C2044.5 534.473 2031.85 487.947 2031.87 440.561C2031.76 402.537 2039.67 364.919 2055.09 330.186V330.186Z" fill="#F6C59B"/>
<path fill-rule="evenodd" clip-rule="evenodd" d="M2055.09 778.38C2095.02 803.851 2141.06 818.062 2188.36 819.52C2235.66 820.979 2282.47 809.63 2323.89 786.667C2365.31 763.703 2399.79 729.974 2423.72 689.022C2447.65 648.07 2460.15 601.409 2459.89 553.941C2459.99 516.043 2452.13 478.549 2436.8 443.908C2396.85 418.626 2350.87 404.559 2303.65 403.174C2256.43 401.788 2209.7 413.135 2168.34 436.031C2126.98 458.927 2092.5 492.534 2068.5 533.348C2044.5 574.161 2031.85 620.686 2031.87 668.073C2031.75 706.075 2039.66 743.672 2055.09 778.38V778.38Z" fill="#F6EDBC"/>
<path fill-rule="evenodd" clip-rule="evenodd" d="M2056.73 554.283C2072.8 588.101 2095.82 618.126 2124.28 642.386C2152.74 666.645 2185.99 684.589 2221.86 695.04C2257.72 705.49 2295.38 708.21 2332.37 703.021C2369.36 697.832 2404.83 684.851 2436.46 664.931C2451.9 630.219 2459.88 592.635 2459.89 554.624V553.941C2459.88 515.953 2451.9 478.393 2436.46 443.703C2404.83 423.792 2369.36 410.816 2332.38 405.628C2295.4 400.44 2257.74 403.156 2221.88 413.599C2186.02 424.042 2152.77 441.975 2124.3 466.221C2095.84 490.467 2072.81 520.478 2056.73 554.283V554.283Z" fill="#DDB38D"/>
<path fill-rule="evenodd" clip-rule="evenodd" d="M2336.64 554.283C2320.58 588.101 2297.55 618.127 2269.09 642.386C2240.63 666.645 2207.38 684.589 2171.52 695.04C2135.65 705.49 2097.99 708.21 2061 703.021C2024.01 697.832 1988.54 684.851 1956.91 664.931C1941.43 630.23 1933.45 592.639 1933.48 554.624V553.941C1933.47 515.958 1941.43 478.398 1956.84 443.703C1988.47 423.791 2023.95 410.815 2060.94 405.626C2097.92 400.437 2135.58 403.153 2171.45 413.596C2207.32 424.038 2240.58 441.971 2269.05 466.218C2297.52 490.464 2320.55 520.476 2336.64 554.283V554.283Z" fill="#8AB9D6"/>
<path fill-rule="evenodd" clip-rule="evenodd" d="M2055.09 778.38C2097.38 805.281 2146.44 819.5 2196.52 819.361H2197.2C2247.25 819.498 2296.29 805.279 2338.55 778.38C2353.98 743.672 2361.9 706.075 2361.77 668.073C2362.23 615.131 2346.72 563.285 2317.3 519.335C2287.87 475.384 2245.89 441.379 2196.86 421.778C2147.81 441.368 2105.82 475.368 2076.38 519.32C2046.94 563.272 2031.42 615.123 2031.87 668.073C2031.75 706.075 2039.66 743.672 2055.09 778.38V778.38Z" fill="#D0DFAD"/>
<path fill-rule="evenodd" clip-rule="evenodd" d="M2336.64 554.283C2308.52 493.846 2258.44 446.47 2196.65 421.846C2143.3 443.867 2098.52 482.672 2069.05 532.424C2039.57 582.175 2027.01 640.182 2033.24 697.716C2054.4 702.955 2076.12 705.593 2097.92 705.57C2147.98 705.928 2197.08 691.862 2239.4 665.043C2281.72 638.225 2315.47 599.781 2336.64 554.283V554.283Z" fill="#A3B1A0"/>
<path fill-rule="evenodd" clip-rule="evenodd" d="M2056.73 554.283C2077.87 599.718 2111.56 638.118 2153.8 664.932C2196.04 691.746 2245.06 705.85 2295.04 705.57C2316.96 705.563 2338.79 702.903 2360.07 697.647C2361.08 687.822 2361.58 677.951 2361.56 668.073C2362.02 615.131 2346.52 563.285 2317.09 519.335C2287.66 475.384 2245.68 441.379 2196.65 421.778C2134.85 446.403 2084.79 493.812 2056.73 554.283V554.283Z" fill="#CFAB87"/>
<path fill-rule="evenodd" clip-rule="evenodd" d="M2055.09 330.186C2039.67 364.92 2031.76 402.537 2031.87 440.561C2031.42 493.511 2046.94 545.362 2076.38 589.314C2105.82 633.266 2147.81 667.266 2196.86 686.856C2245.89 667.255 2287.87 633.25 2317.3 589.299C2346.72 545.349 2362.23 493.503 2361.77 440.561C2361.89 402.537 2353.98 364.92 2338.55 330.186C2296.28 303.311 2247.24 289.094 2197.2 289.205H2196.52C2146.45 289.096 2097.39 303.313 2055.09 330.186Z" fill="#DBB39A"/>
<path fill-rule="evenodd" clip-rule="evenodd" d="M2031.87 440.561C2031.5 493.416 2047.02 545.156 2076.42 589.022C2105.82 632.888 2147.72 666.841 2196.65 686.446C2258.46 661.818 2308.55 614.412 2336.64 553.941C2315.49 508.519 2281.8 470.133 2239.56 443.331C2197.32 416.53 2148.31 402.437 2098.33 402.722C2076.53 402.7 2054.81 405.337 2033.64 410.577C2032.49 420.53 2031.9 430.541 2031.87 440.561V440.561Z" fill="#A79E94"/>
<path fill-rule="evenodd" clip-rule="evenodd" d="M2056.73 554.283C2084.81 614.826 2134.96 662.27 2196.86 686.856C2245.89 667.255 2287.87 633.25 2317.3 589.299C2346.72 545.348 2362.23 493.503 2361.77 440.561C2361.79 430.683 2361.29 420.811 2360.27 410.986C2338.99 405.731 2317.16 403.071 2295.25 403.063C2245.23 402.739 2196.18 416.813 2153.9 443.617C2111.62 470.421 2077.9 508.829 2056.73 554.283V554.283Z" fill="#CAA78D"/>
<path d="M2196.86 686.924C2274.25 686.924 2336.98 627.569 2336.98 554.351C2336.98 481.133 2274.25 421.778 2196.86 421.778C2119.46 421.778 2056.73 481.133 2056.73 554.351C2056.73 627.569 2119.46 686.924 2196.86 686.924Z" fill="#9A8E85"/>
<path fill-rule="evenodd" clip-rule="evenodd" d="M2338.55 330.186C2298.62 304.738 2252.58 290.546 2205.29 289.1C2158 287.653 2111.2 299.005 2069.79 321.964C2028.38 344.923 1993.9 378.641 1969.96 419.579C1946.03 460.518 1933.52 507.165 1933.76 554.624C1933.65 592.545 1941.51 630.062 1956.84 664.726C1996.79 690.008 2042.78 704.075 2090 705.46C2137.22 706.845 2183.94 695.499 2225.3 672.602C2266.66 649.706 2301.14 616.1 2325.14 575.286C2349.15 534.473 2361.8 487.947 2361.77 440.561C2361.89 402.537 2353.98 364.919 2338.55 330.186Z" fill="#BFD2EA"/>
<path fill-rule="evenodd" clip-rule="evenodd" d="M2338.55 778.38C2298.62 803.851 2252.58 818.062 2205.29 819.52C2157.99 820.979 2111.17 809.63 2069.75 786.667C2028.34 763.703 1993.85 729.974 1969.92 689.022C1945.99 648.07 1933.5 601.409 1933.76 553.941C1933.65 516.043 1941.52 478.549 1956.84 443.908C1996.79 418.626 2042.78 404.559 2090 403.174C2137.22 401.788 2183.94 413.135 2225.3 436.031C2266.66 458.927 2301.14 492.534 2325.14 533.348C2349.15 574.161 2361.8 620.686 2361.77 668.073C2361.9 706.075 2353.98 743.672 2338.55 778.38V778.38Z" fill="#B8DDDC"/>
<path fill-rule="evenodd" clip-rule="evenodd" d="M2055.09 330.186C2095.03 304.738 2141.06 290.546 2188.35 289.1C2235.64 287.653 2282.45 299.005 2323.86 321.964C2365.26 344.923 2399.75 378.641 2423.68 419.579C2447.62 460.518 2460.12 507.165 2459.89 554.624C2460 592.545 2452.13 630.062 2436.8 664.726C2396.85 690.008 2350.87 704.075 2303.65 705.46C2256.43 706.845 2209.7 695.499 2168.34 672.602C2126.98 649.706 2092.5 616.1 2068.5 575.286C2044.5 534.473 2031.85 487.947 2031.87 440.561C2031.76 402.537 2039.67 364.919 2055.09 330.186V330.186Z" fill="#F6C59B"/>
<path fill-rule="evenodd" clip-rule="evenodd" d="M2055.09 778.38C2095.02 803.851 2141.06 818.062 2188.36 819.52C2235.66 820.979 2282.47 809.63 2323.89 786.667C2365.31 763.703 2399.79 729.974 2423.72 689.022C2447.65 648.07 2460.15 601.409 2459.89 553.941C2459.99 516.043 2452.13 478.549 2436.8 443.908C2396.85 418.626 2350.87 404.559 2303.65 403.174C2256.43 401.788 2209.7 413.135 2168.34 436.031C2126.98 458.927 2092.5 492.534 2068.5 533.348C2044.5 574.161 2031.85 620.686 2031.87 668.073C2031.75 706.075 2039.66 743.672 2055.09 778.38V778.38Z" fill="#F6EDBC"/>
<path fill-rule="evenodd" clip-rule="evenodd" d="M2056.73 554.283C2072.8 588.101 2095.82 618.126 2124.28 642.386C2152.74 666.645 2185.99 684.589 2221.86 695.04C2257.72 705.49 2295.38 708.21 2332.37 703.021C2369.36 697.832 2404.83 684.851 2436.46 664.931C2451.9 630.219 2459.88 592.635 2459.89 554.624V553.941C2459.88 515.953 2451.9 478.393 2436.46 443.703C2404.83 423.792 2369.36 410.816 2332.38 405.628C2295.4 400.44 2257.74 403.156 2221.88 413.599C2186.02 424.042 2152.77 441.975 2124.3 466.221C2095.84 490.467 2072.81 520.478 2056.73 554.283V554.283Z" fill="#DDB38D"/>
<path fill-rule="evenodd" clip-rule="evenodd" d="M2336.64 554.283C2320.58 588.101 2297.55 618.127 2269.09 642.386C2240.63 666.645 2207.38 684.589 2171.52 695.04C2135.65 705.49 2097.99 708.21 2061 703.021C2024.01 697.832 1988.54 684.851 1956.91 664.931C1941.43 630.23 1933.45 592.639 1933.48 554.624V553.941C1933.47 515.958 1941.43 478.398 1956.84 443.703C1988.47 423.791 2023.95 410.815 2060.94 405.626C2097.92 400.437 2135.58 403.153 2171.45 413.596C2207.32 424.038 2240.58 441.971 2269.05 466.218C2297.52 490.464 2320.55 520.476 2336.64 554.283V554.283Z" fill="#8AB9D6"/>
<path fill-rule="evenodd" clip-rule="evenodd" d="M2055.09 778.38C2097.38 805.281 2146.44 819.5 2196.52 819.361H2197.2C2247.25 819.498 2296.29 805.279 2338.55 778.38C2353.98 743.672 2361.9 706.075 2361.77 668.073C2362.23 615.131 2346.72 563.285 2317.3 519.335C2287.87 475.384 2245.89 441.379 2196.86 421.778C2147.81 441.368 2105.82 475.368 2076.38 519.32C2046.94 563.272 2031.42 615.123 2031.87 668.073C2031.75 706.075 2039.66 743.672 2055.09 778.38V778.38Z" fill="#D0DFAD"/>
<path fill-rule="evenodd" clip-rule="evenodd" d="M2336.64 554.283C2308.52 493.846 2258.44 446.47 2196.65 421.846C2143.3 443.867 2098.52 482.672 2069.05 532.424C2039.57 582.175 2027.01 640.182 2033.24 697.716C2054.4 702.955 2076.12 705.593 2097.92 705.57C2147.98 705.928 2197.08 691.862 2239.4 665.043C2281.72 638.225 2315.47 599.781 2336.64 554.283V554.283Z" fill="#A3B1A0"/>
<path fill-rule="evenodd" clip-rule="evenodd" d="M2056.73 554.283C2077.87 599.718 2111.56 638.118 2153.8 664.932C2196.04 691.746 2245.06 705.85 2295.04 705.57C2316.96 705.563 2338.79 702.903 2360.07 697.647C2361.08 687.822 2361.58 677.951 2361.56 668.073C2362.02 615.131 2346.52 563.285 2317.09 519.335C2287.66 475.384 2245.68 441.379 2196.65 421.778C2134.85 446.403 2084.79 493.812 2056.73 554.283V554.283Z" fill="#CFAB87"/>
<path fill-rule="evenodd" clip-rule="evenodd" d="M2055.09 330.186C2039.67 364.92 2031.76 402.537 2031.87 440.561C2031.42 493.511 2046.94 545.362 2076.38 589.314C2105.82 633.266 2147.81 667.266 2196.86 686.856C2245.89 667.255 2287.87 633.25 2317.3 589.299C2346.72 545.349 2362.23 493.503 2361.77 440.561C2361.89 402.537 2353.98 364.92 2338.55 330.186C2296.28 303.311 2247.24 289.094 2197.2 289.205H2196.52C2146.45 289.096 2097.39 303.313 2055.09 330.186Z" fill="#DBB39A"/>
<path fill-rule="evenodd" clip-rule="evenodd" d="M2031.87 440.561C2031.5 493.416 2047.02 545.156 2076.42 589.022C2105.82 632.888 2147.72 666.841 2196.65 686.446C2258.46 661.818 2308.55 614.412 2336.64 553.941C2315.49 508.519 2281.8 470.133 2239.56 443.331C2197.32 416.53 2148.31 402.437 2098.33 402.722C2076.53 402.7 2054.81 405.337 2033.64 410.577C2032.49 420.53 2031.9 430.541 2031.87 440.561V440.561Z" fill="#A79E94"/>
<path fill-rule="evenodd" clip-rule="evenodd" d="M2056.73 554.283C2084.81 614.826 2134.96 662.27 2196.86 686.856C2245.89 667.255 2287.87 633.25 2317.3 589.299C2346.72 545.348 2362.23 493.503 2361.77 440.561C2361.79 430.683 2361.29 420.811 2360.27 410.986C2338.99 405.731 2317.16 403.071 2295.25 403.063C2245.23 402.739 2196.18 416.813 2153.9 443.617C2111.62 470.421 2077.9 508.829 2056.73 554.283V554.283Z" fill="#CAA78D"/>
<path d="M2196.86 686.924C2274.25 686.924 2336.98 627.569 2336.98 554.351C2336.98 481.133 2274.25 421.778 2196.86 421.778C2119.46 421.778 2056.73 481.133 2056.73 554.351C2056.73 627.569 2119.46 686.924 2196.86 686.924Z" fill="#9A8E85"/>
<path fill-rule="evenodd" clip-rule="evenodd" d="M2338.55 330.186C2298.62 304.738 2252.58 290.546 2205.29 289.1C2158 287.653 2111.2 299.005 2069.79 321.964C2028.38 344.923 1993.9 378.641 1969.96 419.579C1946.03 460.518 1933.52 507.165 1933.76 554.624C1933.65 592.545 1941.51 630.062 1956.84 664.726C1996.79 690.008 2042.78 704.075 2090 705.46C2137.22 706.845 2183.94 695.499 2225.3 672.602C2266.66 649.706 2301.14 616.1 2325.14 575.286C2349.15 534.473 2361.8 487.947 2361.77 440.561C2361.89 402.537 2353.98 364.919 2338.55 330.186Z" fill="#BFD2EA"/>
<path fill-rule="evenodd" clip-rule="evenodd" d="M2338.55 778.38C2298.62 803.851 2252.58 818.062 2205.29 819.52C2157.99 820.979 2111.17 809.63 2069.75 786.667C2028.34 763.703 1993.85 729.974 1969.92 689.022C1945.99 648.07 1933.5 601.409 1933.76 553.941C1933.65 516.043 1941.52 478.549 1956.84 443.908C1996.79 418.626 2042.78 404.559 2090 403.174C2137.22 401.788 2183.94 413.135 2225.3 436.031C2266.66 458.927 2301.14 492.534 2325.14 533.348C2349.15 574.161 2361.8 620.686 2361.77 668.073C2361.9 706.075 2353.98 743.672 2338.55 778.38V778.38Z" fill="#B8DDDC"/>
<path fill-rule="evenodd" clip-rule="evenodd" d="M2055.09 330.186C2095.03 304.738 2141.06 290.546 2188.35 289.1C2235.64 287.653 2282.45 299.005 2323.86 321.964C2365.26 344.923 2399.75 378.641 2423.68 419.579C2447.62 460.518 2460.12 507.165 2459.89 554.624C2460 592.545 2452.13 630.062 2436.8 664.726C2396.85 690.008 2350.87 704.075 2303.65 705.46C2256.43 706.845 2209.7 695.499 2168.34 672.602C2126.98 649.706 2092.5 616.1 2068.5 575.286C2044.5 534.473 2031.85 487.947 2031.87 440.561C2031.76 402.537 2039.67 364.919 2055.09 330.186V330.186Z" fill="#F6C59B"/>
<path fill-rule="evenodd" clip-rule="evenodd" d="M2055.09 778.38C2095.02 803.851 2141.06 818.062 2188.36 819.52C2235.66 820.979 2282.47 809.63 2323.89 786.667C2365.31 763.703 2399.79 729.974 2423.72 689.022C2447.65 648.07 2460.15 601.409 2459.89 553.941C2459.99 516.043 2452.13 478.549 2436.8 443.908C2396.85 418.626 2350.87 404.559 2303.65 403.174C2256.43 401.788 2209.7 413.135 2168.34 436.031C2126.98 458.927 2092.5 492.534 2068.5 533.348C2044.5 574.161 2031.85 620.686 2031.87 668.073C2031.75 706.075 2039.66 743.672 2055.09 778.38V778.38Z" fill="#F6EDBC"/>
<path fill-rule="evenodd" clip-rule="evenodd" d="M2056.73 554.283C2072.8 588.101 2095.82 618.126 2124.28 642.386C2152.74 666.645 2185.99 684.589 2221.86 695.04C2257.72 705.49 2295.38 708.21 2332.37 703.021C2369.36 697.832 2404.83 684.851 2436.46 664.931C2451.9 630.219 2459.88 592.635 2459.89 554.624V553.941C2459.88 515.953 2451.9 478.393 2436.46 443.703C2404.83 423.792 2369.36 410.816 2332.38 405.628C2295.4 400.44 2257.74 403.156 2221.88 413.599C2186.02 424.042 2152.77 441.975 2124.3 466.221C2095.84 490.467 2072.81 520.478 2056.73 554.283V554.283Z" fill="#DDB38D"/>
<path fill-rule="evenodd" clip-rule="evenodd" d="M2336.64 554.283C2320.58 588.101 2297.55 618.127 2269.09 642.386C2240.63 666.645 2207.38 684.589 2171.52 695.04C2135.65 705.49 2097.99 708.21 2061 703.021C2024.01 697.832 1988.54 684.851 1956.91 664.931C1941.43 630.23 1933.45 592.639 1933.48 554.624V553.941C1933.47 515.958 1941.43 478.398 1956.84 443.703C1988.47 423.791 2023.95 410.815 2060.94 405.626C2097.92 400.437 2135.58 403.153 2171.45 413.596C2207.32 424.038 2240.58 441.971 2269.05 466.218C2297.52 490.464 2320.55 520.476 2336.64 554.283V554.283Z" fill="#8AB9D6"/>
<path fill-rule="evenodd" clip-rule="evenodd" d="M2055.09 778.38C2097.38 805.281 2146.44 819.5 2196.52 819.361H2197.2C2247.25 819.498 2296.29 805.279 2338.55 778.38C2353.98 743.672 2361.9 706.075 2361.77 668.073C2362.23 615.131 2346.72 563.285 2317.3 519.335C2287.87 475.384 2245.89 441.379 2196.86 421.778C2147.81 441.368 2105.82 475.368 2076.38 519.32C2046.94 563.272 2031.42 615.123 2031.87 668.073C2031.75 706.075 2039.66 743.672 2055.09 778.38V778.38Z" fill="#D0DFAD"/>
<path fill-rule="evenodd" clip-rule="evenodd" d="M2336.64 554.283C2308.52 493.846 2258.44 446.47 2196.65 421.846C2143.3 443.867 2098.52 482.672 2069.05 532.424C2039.57 582.175 2027.01 640.182 2033.24 697.716C2054.4 702.955 2076.12 705.593 2097.92 705.57C2147.98 705.928 2197.08 691.862 2239.4 665.043C2281.72 638.225 2315.47 599.781 2336.64 554.283V554.283Z" fill="#A3B1A0"/>
<path fill-rule="evenodd" clip-rule="evenodd" d="M2056.73 554.283C2077.87 599.718 2111.56 638.118 2153.8 664.932C2196.04 691.746 2245.06 705.85 2295.04 705.57C2316.96 705.563 2338.79 702.903 2360.07 697.647C2361.08 687.822 2361.58 677.951 2361.56 668.073C2362.02 615.131 2346.52 563.285 2317.09 519.335C2287.66 475.384 2245.68 441.379 2196.65 421.778C2134.85 446.403 2084.79 493.812 2056.73 554.283V554.283Z" fill="#CFAB87"/>
<path fill-rule="evenodd" clip-rule="evenodd" d="M2055.09 330.186C2039.67 364.92 2031.76 402.537 2031.87 440.561C2031.42 493.511 2046.94 545.362 2076.38 589.314C2105.82 633.266 2147.81 667.266 2196.86 686.856C2245.89 667.255 2287.87 633.25 2317.3 589.299C2346.72 545.349 2362.23 493.503 2361.77 440.561C2361.89 402.537 2353.98 364.92 2338.55 330.186C2296.28 303.311 2247.24 289.094 2197.2 289.205H2196.52C2146.45 289.096 2097.39 303.313 2055.09 330.186Z" fill="#DBB39A"/>
<path fill-rule="evenodd" clip-rule="evenodd" d="M2031.87 440.561C2031.5 493.416 2047.02 545.156 2076.42 589.022C2105.82 632.888 2147.72 666.841 2196.65 686.446C2258.46 661.818 2308.55 614.412 2336.64 553.941C2315.49 508.519 2281.8 470.133 2239.56 443.331C2197.32 416.53 2148.31 402.437 2098.33 402.722C2076.53 402.7 2054.81 405.337 2033.64 410.577C2032.49 420.53 2031.9 430.541 2031.87 440.561V440.561Z" fill="#A79E94"/>
<path fill-rule="evenodd" clip-rule="evenodd" d="M2056.73 554.283C2084.81 614.826 2134.96 662.27 2196.86 686.856C2245.89 667.255 2287.87 633.25 2317.3 589.299C2346.72 545.348 2362.23 493.503 2361.77 440.561C2361.79 430.683 2361.29 420.811 2360.27 410.986C2338.99 405.731 2317.16 403.071 2295.25 403.063C2245.23 402.739 2196.18 416.813 2153.9 443.617C2111.62 470.421 2077.9 508.829 2056.73 554.283V554.283Z" fill="#CAA78D"/>
<path d="M2196.86 686.924C2274.25 686.924 2336.98 627.569 2336.98 554.351C2336.98 481.133 2274.25 421.778 2196.86 421.778C2119.46 421.778 2056.73 481.133 2056.73 554.351C2056.73 627.569 2119.46 686.924 2196.86 686.924Z" fill="#9A8E85"/>
<path fill-rule="evenodd" clip-rule="evenodd" d="M2338.55 330.186C2298.62 304.738 2252.58 290.546 2205.29 289.1C2158 287.653 2111.2 299.005 2069.79 321.964C2028.38 344.923 1993.9 378.641 1969.96 419.579C1946.03 460.518 1933.52 507.165 1933.76 554.624C1933.65 592.545 1941.51 630.062 1956.84 664.726C1996.79 690.008 2042.78 704.075 2090 705.46C2137.22 706.845 2183.94 695.499 2225.3 672.602C2266.66 649.706 2301.14 616.1 2325.14 575.286C2349.15 534.473 2361.8 487.947 2361.77 440.561C2361.89 402.537 2353.98 364.919 2338.55 330.186Z" fill="#BFD2EA"/>
<path fill-rule="evenodd" clip-rule="evenodd" d="M2338.55 778.38C2298.62 803.851 2252.58 818.062 2205.29 819.52C2157.99 820.979 2111.17 809.63 2069.75 786.667C2028.34 763.703 1993.85 729.974 1969.92 689.022C1945.99 648.07 1933.5 601.409 1933.76 553.941C1933.65 516.043 1941.52 478.549 1956.84 443.908C1996.79 418.626 2042.78 404.559 2090 403.174C2137.22 401.788 2183.94 413.135 2225.3 436.031C2266.66 458.927 2301.14 492.534 2325.14 533.348C2349.15 574.161 2361.8 620.686 2361.77 668.073C2361.9 706.075 2353.98 743.672 2338.55 778.38V778.38Z" fill="#B8DDDC"/>
<path fill-rule="evenodd" clip-rule="evenodd" d="M2055.09 330.186C2095.03 304.738 2141.06 290.546 2188.35 289.1C2235.64 287.653 2282.45 299.005 2323.86 321.964C2365.26 344.923 2399.75 378.641 2423.68 419.579C2447.62 460.518 2460.12 507.165 2459.89 554.624C2460 592.545 2452.13 630.062 2436.8 664.726C2396.85 690.008 2350.87 704.075 2303.65 705.46C2256.43 706.845 2209.7 695.499 2168.34 672.602C2126.98 649.706 2092.5 616.1 2068.5 575.286C2044.5 534.473 2031.85 487.947 2031.87 440.561C2031.76 402.537 2039.67 364.919 2055.09 330.186V330.186Z" fill="#F6C59B"/>
<path fill-rule="evenodd" clip-rule="evenodd" d="M2055.09 778.38C2095.02 803.851 2141.06 818.062 2188.36 819.52C2235.66 820.979 2282.47 809.63 2323.89 786.667C2365.31 763.703 2399.79 729.974 2423.72 689.022C2447.65 648.07 2460.15 601.409 2459.89 553.941C2459.99 516.043 2452.13 478.549 2436.8 443.908C2396.85 418.626 2350.87 404.559 2303.65 403.174C2256.43 401.788 2209.7 413.135 2168.34 436.031C2126.98 458.927 2092.5 492.534 2068.5 533.348C2044.5 574.161 2031.85 620.686 2031.87 668.073C2031.75 706.075 2039.66 743.672 2055.09 778.38V778.38Z" fill="#F6EDBC"/>
<path fill-rule="evenodd" clip-rule="evenodd" d="M2056.73 554.283C2072.8 588.101 2095.82 618.126 2124.28 642.386C2152.74 666.645 2185.99 684.589 2221.86 695.04C2257.72 705.49 2295.38 708.21 2332.37 703.021C2369.36 697.832 2404.83 684.851 2436.46 664.931C2451.9 630.219 2459.88 592.635 2459.89 554.624V553.941C2459.88 515.953 2451.9 478.393 2436.46 443.703C2404.83 423.792 2369.36 410.816 2332.38 405.628C2295.4 400.44 2257.74 403.156 2221.88 413.599C2186.02 424.042 2152.77 441.975 2124.3 466.221C2095.84 490.467 2072.81 520.478 2056.73 554.283V554.283Z" fill="#DDB38D"/>
<path fill-rule="evenodd" clip-rule="evenodd" d="M2336.64 554.283C2320.58 588.101 2297.55 618.127 2269.09 642.386C2240.63 666.645 2207.38 684.589 2171.52 695.04C2135.65 705.49 2097.99 708.21 2061 703.021C2024.01 697.832 1988.54 684.851 1956.91 664.931C1941.43 630.23 1933.45 592.639 1933.48 554.624V553.941C1933.47 515.958 1941.43 478.398 1956.84 443.703C1988.47 423.791 2023.95 410.815 2060.94 405.626C2097.92 400.437 2135.58 403.153 2171.45 413.596C2207.32 424.038 2240.58 441.971 2269.05 466.218C2297.52 490.464 2320.55 520.476 2336.64 554.283V554.283Z" fill="#8AB9D6"/>
<path fill-rule="evenodd" clip-rule="evenodd" d="M2055.09 778.38C2097.38 805.281 2146.44 819.5 2196.52 819.361H2197.2C2247.25 819.498 2296.29 805.279 2338.55 778.38C2353.98 743.672 2361.9 706.075 2361.77 668.073C2362.23 615.131 2346.72 563.285 2317.3 519.335C2287.87 475.384 2245.89 441.379 2196.86 421.778C2147.81 441.368 2105.82 475.368 2076.38 519.32C2046.94 563.272 2031.42 615.123 2031.87 668.073C2031.75 706.075 2039.66 743.672 2055.09 778.38V778.38Z" fill="#D0DFAD"/>
<path fill-rule="evenodd" clip-rule="evenodd" d="M2336.64 554.283C2308.52 493.846 2258.44 446.47 2196.65 421.846C2143.3 443.867 2098.52 482.672 2069.05 532.424C2039.57 582.175 2027.01 640.182 2033.24 697.716C2054.4 702.955 2076.12 705.593 2097.92 705.57C2147.98 705.928 2197.08 691.862 2239.4 665.043C2281.72 638.225 2315.47 599.781 2336.64 554.283V554.283Z" fill="#A3B1A0"/>
<path fill-rule="evenodd" clip-rule="evenodd" d="M2056.73 554.283C2077.87 599.718 2111.56 638.118 2153.8 664.932C2196.04 691.746 2245.06 705.85 2295.04 705.57C2316.96 705.563 2338.79 702.903 2360.07 697.647C2361.08 687.822 2361.58 677.951 2361.56 668.073C2362.02 615.131 2346.52 563.285 2317.09 519.335C2287.66 475.384 2245.68 441.379 2196.65 421.778C2134.85 446.403 2084.79 493.812 2056.73 554.283V554.283Z" fill="#CFAB87"/>
<path fill-rule="evenodd" clip-rule="evenodd" d="M2055.09 330.186C2039.67 364.92 2031.76 402.537 2031.87 440.561C2031.42 493.511 2046.94 545.362 2076.38 589.314C2105.82 633.266 2147.81 667.266 2196.86 686.856C2245.89 667.255 2287.87 633.25 2317.3 589.299C2346.72 545.349 2362.23 493.503 2361.77 440.561C2361.89 402.537 2353.98 364.92 2338.55 330.186C2296.28 303.311 2247.24 289.094 2197.2 289.205H2196.52C2146.45 289.096 2097.39 303.313 2055.09 330.186Z" fill="#DBB39A"/>
<path fill-rule="evenodd" clip-rule="evenodd" d="M2031.87 440.561C2031.5 493.416 2047.02 545.156 2076.42 589.022C2105.82 632.888 2147.72 666.841 2196.65 686.446C2258.46 661.818 2308.55 614.412 2336.64 553.941C2315.49 508.519 2281.8 470.133 2239.56 443.331C2197.32 416.53 2148.31 402.437 2098.33 402.722C2076.53 402.7 2054.81 405.337 2033.64 410.577C2032.49 420.53 2031.9 430.541 2031.87 440.561V440.561Z" fill="#A79E94"/>
<path fill-rule="evenodd" clip-rule="evenodd" d="M2056.73 554.283C2084.81 614.826 2134.96 662.27 2196.86 686.856C2245.89 667.255 2287.87 633.25 2317.3 589.299C2346.72 545.348 2362.23 493.503 2361.77 440.561C2361.79 430.683 2361.29 420.811 2360.27 410.986C2338.99 405.731 2317.16 403.071 2295.25 403.063C2245.23 402.739 2196.18 416.813 2153.9 443.617C2111.62 470.421 2077.9 508.829 2056.73 554.283V554.283Z" fill="#CAA78D"/>
<path d="M2196.86 686.924C2274.25 686.924 2336.98 627.569 2336.98 554.351C2336.98 481.133 2274.25 421.778 2196.86 421.778C2119.46 421.778 2056.73 481.133 2056.73 554.351C2056.73 627.569 2119.46 686.924 2196.86 686.924Z" fill="#9A8E85"/>
<path fill-rule="evenodd" clip-rule="evenodd" d="M2338.55 330.186C2298.62 304.738 2252.58 290.546 2205.29 289.1C2158 287.653 2111.2 299.005 2069.79 321.964C2028.38 344.923 1993.9 378.641 1969.96 419.579C1946.03 460.518 1933.52 507.165 1933.76 554.624C1933.65 592.545 1941.51 630.062 1956.84 664.726C1996.79 690.008 2042.78 704.075 2090 705.46C2137.22 706.845 2183.94 695.499 2225.3 672.602C2266.66 649.706 2301.14 616.1 2325.14 575.286C2349.15 534.473 2361.8 487.947 2361.77 440.561C2361.89 402.537 2353.98 364.919 2338.55 330.186Z" fill="#BFD2EA"/>
<path fill-rule="evenodd" clip-rule="evenodd" d="M2338.55 778.38C2298.62 803.851 2252.58 818.062 2205.29 819.52C2157.99 820.979 2111.17 809.63 2069.75 786.667C2028.34 763.703 1993.85 729.974 1969.92 689.022C1945.99 648.07 1933.5 601.409 1933.76 553.941C1933.65 516.043 1941.52 478.549 1956.84 443.908C1996.79 418.626 2042.78 404.559 2090 403.174C2137.22 401.788 2183.94 413.135 2225.3 436.031C2266.66 458.927 2301.14 492.534 2325.14 533.348C2349.15 574.161 2361.8 620.686 2361.77 668.073C2361.9 706.075 2353.98 743.672 2338.55 778.38V778.38Z" fill="#B8DDDC"/>
<path fill-rule="evenodd" clip-rule="evenodd" d="M2055.09 330.186C2095.03 304.738 2141.06 290.546 2188.35 289.1C2235.64 287.653 2282.45 299.005 2323.86 321.964C2365.26 344.923 2399.75 378.641 2423.68 419.579C2447.62 460.518 2460.12 507.165 2459.89 554.624C2460 592.545 2452.13 630.062 2436.8 664.726C2396.85 690.008 2350.87 704.075 2303.65 705.46C2256.43 706.845 2209.7 695.499 2168.34 672.602C2126.98 649.706 2092.5 616.1 2068.5 575.286C2044.5 534.473 2031.85 487.947 2031.87 440.561C2031.76 402.537 2039.67 364.919 2055.09 330.186V330.186Z" fill="#F6C59B"/>
<path fill-rule="evenodd" clip-rule="evenodd" d="M2055.09 778.38C2095.02 803.851 2141.06 818.062 2188.36 819.52C2235.66 820.979 2282.47 809.63 2323.89 786.667C2365.31 763.703 2399.79 729.974 2423.72 689.022C2447.65 648.07 2460.15 601.409 2459.89 553.941C2459.99 516.043 2452.13 478.549 2436.8 443.908C2396.85 418.626 2350.87 404.559 2303.65 403.174C2256.43 401.788 2209.7 413.135 2168.34 436.031C2126.98 458.927 2092.5 492.534 2068.5 533.348C2044.5 574.161 2031.85 620.686 2031.87 668.073C2031.75 706.075 2039.66 743.672 2055.09 778.38V778.38Z" fill="#F6EDBC"/>
<path fill-rule="evenodd" clip-rule="evenodd" d="M2056.73 554.283C2072.8 588.101 2095.82 618.126 2124.28 642.386C2152.74 666.645 2185.99 684.589 2221.86 695.04C2257.72 705.49 2295.38 708.21 2332.37 703.021C2369.36 697.832 2404.83 684.851 2436.46 664.931C2451.9 630.219 2459.88 592.635 2459.89 554.624V553.941C2459.88 515.953 2451.9 478.393 2436.46 443.703C2404.83 423.792 2369.36 410.816 2332.38 405.628C2295.4 400.44 2257.74 403.156 2221.88 413.599C2186.02 424.042 2152.77 441.975 2124.3 466.221C2095.84 490.467 2072.81 520.478 2056.73 554.283V554.283Z" fill="#DDB38D"/>
<path fill-rule="evenodd" clip-rule="evenodd" d="M2336.64 554.283C2320.58 588.101 2297.55 618.127 2269.09 642.386C2240.63 666.645 2207.38 684.589 2171.52 695.04C2135.65 705.49 2097.99 708.21 2061 703.021C2024.01 697.832 1988.54 684.851 1956.91 664.931C1941.43 630.23 1933.45 592.639 1933.48 554.624V553.941C1933.47 515.958 1941.43 478.398 1956.84 443.703C1988.47 423.791 2023.95 410.815 2060.94 405.626C2097.92 400.437 2135.58 403.153 2171.45 413.596C2207.32 424.038 2240.58 441.971 2269.05 466.218C2297.52 490.464 2320.55 520.476 2336.64 554.283V554.283Z" fill="#8AB9D6"/>
<path fill-rule="evenodd" clip-rule="evenodd" d="M2055.09 778.38C2097.38 805.281 2146.44 819.5 2196.52 819.361H2197.2C2247.25 819.498 2296.29 805.279 2338.55 778.38C2353.98 743.672 2361.9 706.075 2361.77 668.073C2362.23 615.131 2346.72 563.285 2317.3 519.335C2287.87 475.384 2245.89 441.379 2196.86 421.778C2147.81 441.368 2105.82 475.368 2076.38 519.32C2046.94 563.272 2031.42 615.123 2031.87 668.073C2031.75 706.075 2039.66 743.672 2055.09 778.38V778.38Z" fill="#D0DFAD"/>
<path fill-rule="evenodd" clip-rule="evenodd" d="M2336.64 554.283C2308.52 493.846 2258.44 446.47 2196.65 421.846C2143.3 443.867 2098.52 482.672 2069.05 532.424C2039.57 582.175 2027.01 640.182 2033.24 697.716C2054.4 702.955 2076.12 705.593 2097.92 705.57C2147.98 705.928 2197.08 691.862 2239.4 665.043C2281.72 638.225 2315.47 599.781 2336.64 554.283V554.283Z" fill="#A3B1A0"/>
<path fill-rule="evenodd" clip-rule="evenodd" d="M2056.73 554.283C2077.87 599.718 2111.56 638.118 2153.8 664.932C2196.04 691.746 2245.06 705.85 2295.04 705.57C2316.96 705.563 2338.79 702.903 2360.07 697.647C2361.08 687.822 2361.58 677.951 2361.56 668.073C2362.02 615.131 2346.52 563.285 2317.09 519.335C2287.66 475.384 2245.68 441.379 2196.65 421.778C2134.85 446.403 2084.79 493.812 2056.73 554.283V554.283Z" fill="#CFAB87"/>
<path fill-rule="evenodd" clip-rule="evenodd" d="M2055.09 330.186C2039.67 364.92 2031.76 402.537 2031.87 440.561C2031.42 493.511 2046.94 545.362 2076.38 589.314C2105.82 633.266 2147.81 667.266 2196.86 686.856C2245.89 667.255 2287.87 633.25 2317.3 589.299C2346.72 545.349 2362.23 493.503 2361.77 440.561C2361.89 402.537 2353.98 364.92 2338.55 330.186C2296.28 303.311 2247.24 289.094 2197.2 289.205H2196.52C2146.45 289.096 2097.39 303.313 2055.09 330.186Z" fill="#DBB39A"/>
<path fill-rule="evenodd" clip-rule="evenodd" d="M2031.87 440.561C2031.5 493.416 2047.02 545.156 2076.42 589.022C2105.82 632.888 2147.72 666.841 2196.65 686.446C2258.46 661.818 2308.55 614.412 2336.64 553.941C2315.49 508.519 2281.8 470.133 2239.56 443.331C2197.32 416.53 2148.31 402.437 2098.33 402.722C2076.53 402.7 2054.81 405.337 2033.64 410.577C2032.49 420.53 2031.9 430.541 2031.87 440.561V440.561Z" fill="#A79E94"/>
<path fill-rule="evenodd" clip-rule="evenodd" d="M2056.73 554.283C2084.81 614.826 2134.96 662.27 2196.86 686.856C2245.89 667.255 2287.87 633.25 2317.3 589.299C2346.72 545.348 2362.23 493.503 2361.77 440.561C2361.79 430.683 2361.29 420.811 2360.27 410.986C2338.99 405.731 2317.16 403.071 2295.25 403.063C2245.23 402.739 2196.18 416.813 2153.9 443.617C2111.62 470.421 2077.9 508.829 2056.73 554.283V554.283Z" fill="#CAA78D"/>
<path d="M2196.86 686.924C2274.25 686.924 2336.98 627.569 2336.98 554.351C2336.98 481.133 2274.25 421.778 2196.86 421.778C2119.46 421.778 2056.73 481.133 2056.73 554.351C2056.73 627.569 2119.46 686.924 2196.86 686.924Z" fill="#9A8E85"/>
<path fill-rule="evenodd" clip-rule="evenodd" d="M2338.55 330.186C2298.62 304.738 2252.58 290.546 2205.29 289.1C2158 287.653 2111.2 299.005 2069.79 321.964C2028.38 344.923 1993.9 378.641 1969.96 419.579C1946.03 460.518 1933.52 507.165 1933.76 554.624C1933.65 592.545 1941.51 630.062 1956.84 664.726C1996.79 690.008 2042.78 704.075 2090 705.46C2137.22 706.845 2183.94 695.499 2225.3 672.602C2266.66 649.706 2301.14 616.1 2325.14 575.286C2349.15 534.473 2361.8 487.947 2361.77 440.561C2361.89 402.537 2353.98 364.919 2338.55 330.186Z" fill="#BFD2EA"/>
<path fill-rule="evenodd" clip-rule="evenodd" d="M2338.55 778.38C2298.62 803.851 2252.58 818.062 2205.29 819.52C2157.99 820.979 2111.17 809.63 2069.75 786.667C2028.34 763.703 1993.85 729.974 1969.92 689.022C1945.99 648.07 1933.5 601.409 1933.76 553.941C1933.65 516.043 1941.52 478.549 1956.84 443.908C1996.79 418.626 2042.78 404.559 2090 403.174C2137.22 401.788 2183.94 413.135 2225.3 436.031C2266.66 458.927 2301.14 492.534 2325.14 533.348C2349.15 574.161 2361.8 620.686 2361.77 668.073C2361.9 706.075 2353.98 743.672 2338.55 778.38V778.38Z" fill="#B8DDDC"/>
<path fill-rule="evenodd" clip-rule="evenodd" d="M2055.09 330.186C2095.03 304.738 2141.06 290.546 2188.35 289.1C2235.64 287.653 2282.45 299.005 2323.86 321.964C2365.26 344.923 2399.75 378.641 2423.68 419.579C2447.62 460.518 2460.12 507.165 2459.89 554.624C2460 592.545 2452.13 630.062 2436.8 664.726C2396.85 690.008 2350.87 704.075 2303.65 705.46C2256.43 706.845 2209.7 695.499 2168.34 672.602C2126.98 649.706 2092.5 616.1 2068.5 575.286C2044.5 534.473 2031.85 487.947 2031.87 440.561C2031.76 402.537 2039.67 364.919 2055.09 330.186V330.186Z" fill="#F6C59B"/>
<path fill-rule="evenodd" clip-rule="evenodd" d="M2055.09 778.38C2095.02 803.851 2141.06 818.062 2188.36 819.52C2235.66 820.979 2282.47 809.63 2323.89 786.667C2365.31 763.703 2399.79 729.974 2423.72 689.022C2447.65 648.07 2460.15 601.409 2459.89 553.941C2459.99 516.043 2452.13 478.549 2436.8 443.908C2396.85 418.626 2350.87 404.559 2303.65 403.174C2256.43 401.788 2209.7 413.135 2168.34 436.031C2126.98 458.927 2092.5 492.534 2068.5 533.348C2044.5 574.161 2031.85 620.686 2031.87 668.073C2031.75 706.075 2039.66 743.672 2055.09 778.38V778.38Z" fill="#F6EDBC"/>
<path fill-rule="evenodd" clip-rule="evenodd" d="M2056.73 554.283C2072.8 588.101 2095.82 618.126 2124.28 642.386C2152.74 666.645 2185.99 684.589 2221.86 695.04C2257.72 705.49 2295.38 708.21 2332.37 703.021C2369.36 697.832 2404.83 684.851 2436.46 664.931C2451.9 630.219 2459.88 592.635 2459.89 554.624V553.941C2459.88 515.953 2451.9 478.393 2436.46 443.703C2404.83 423.792 2369.36 410.816 2332.38 405.628C2295.4 400.44 2257.74 403.156 2221.88 413.599C2186.02 424.042 2152.77 441.975 2124.3 466.221C2095.84 490.467 2072.81 520.478 2056.73 554.283V554.283Z" fill="#DDB38D"/>
<path fill-rule="evenodd" clip-rule="evenodd" d="M2336.64 554.283C2320.58 588.101 2297.55 618.127 2269.09 642.386C2240.63 666.645 2207.38 684.589 2171.52 695.04C2135.65 705.49 2097.99 708.21 2061 703.021C2024.01 697.832 1988.54 684.851 1956.91 664.931C1941.43 630.23 1933.45 592.639 1933.48 554.624V553.941C1933.47 515.958 1941.43 478.398 1956.84 443.703C1988.47 423.791 2023.95 410.815 2060.94 405.626C2097.92 400.437 2135.58 403.153 2171.45 413.596C2207.32 424.038 2240.58 441.971 2269.05 466.218C2297.52 490.464 2320.55 520.476 2336.64 554.283V554.283Z" fill="#8AB9D6"/>
<path fill-rule="evenodd" clip-rule="evenodd" d="M2055.09 778.38C2097.38 805.281 2146.44 819.5 2196.52 819.361H2197.2C2247.25 819.498 2296.29 805.279 2338.55 778.38C2353.98 743.672 2361.9 706.075 2361.77 668.073C2362.23 615.131 2346.72 563.285 2317.3 519.335C2287.87 475.384 2245.89 441.379 2196.86 421.778C2147.81 441.368 2105.82 475.368 2076.38 519.32C2046.94 563.272 2031.42 615.123 2031.87 668.073C2031.75 706.075 2039.66 743.672 2055.09 778.38V778.38Z" fill="#D0DFAD"/>
<path fill-rule="evenodd" clip-rule="evenodd" d="M2336.64 554.283C2308.52 493.846 2258.44 446.47 2196.65 421.846C2143.3 443.867 2098.52 482.672 2069.05 532.424C2039.57 582.175 2027.01 640.182 2033.24 697.716C2054.4 702.955 2076.12 705.593 2097.92 705.57C2147.98 705.928 2197.08 691.862 2239.4 665.043C2281.72 638.225 2315.47 599.781 2336.64 554.283V554.283Z" fill="#A3B1A0"/>
<path fill-rule="evenodd" clip-rule="evenodd" d="M2056.73 554.283C2077.87 599.718 2111.56 638.118 2153.8 664.932C2196.04 691.746 2245.06 705.85 2295.04 705.57C2316.96 705.563 2338.79 702.903 2360.07 697.647C2361.08 687.822 2361.58 677.951 2361.56 668.073C2362.02 615.131 2346.52 563.285 2317.09 519.335C2287.66 475.384 2245.68 441.379 2196.65 421.778C2134.85 446.403 2084.79 493.812 2056.73 554.283V554.283Z" fill="#CFAB87"/>
<path fill-rule="evenodd" clip-rule="evenodd" d="M2055.09 330.186C2039.67 364.92 2031.76 402.537 2031.87 440.561C2031.42 493.511 2046.94 545.362 2076.38 589.314C2105.82 633.266 2147.81 667.266 2196.86 686.856C2245.89 667.255 2287.87 633.25 2317.3 589.299C2346.72 545.349 2362.23 493.503 2361.77 440.561C2361.89 402.537 2353.98 364.92 2338.55 330.186C2296.28 303.311 2247.24 289.094 2197.2 289.205H2196.52C2146.45 289.096 2097.39 303.313 2055.09 330.186Z" fill="#DBB39A"/>
<path fill-rule="evenodd" clip-rule="evenodd" d="M2031.87 440.561C2031.5 493.416 2047.02 545.156 2076.42 589.022C2105.82 632.888 2147.72 666.841 2196.65 686.446C2258.46 661.818 2308.55 614.412 2336.64 553.941C2315.49 508.519 2281.8 470.133 2239.56 443.331C2197.32 416.53 2148.31 402.437 2098.33 402.722C2076.53 402.7 2054.81 405.337 2033.64 410.577C2032.49 420.53 2031.9 430.541 2031.87 440.561V440.561Z" fill="#A79E94"/>
<path fill-rule="evenodd" clip-rule="evenodd" d="M2056.73 554.283C2084.81 614.826 2134.96 662.27 2196.86 686.856C2245.89 667.255 2287.87 633.25 2317.3 589.299C2346.72 545.348 2362.23 493.503 2361.77 440.561C2361.79 430.683 2361.29 420.811 2360.27 410.986C2338.99 405.731 2317.16 403.071 2295.25 403.063C2245.23 402.739 2196.18 416.813 2153.9 443.617C2111.62 470.421 2077.9 508.829 2056.73 554.283V554.283Z" fill="#CAA78D"/>
<path d="M2196.86 686.924C2274.25 686.924 2336.98 627.569 2336.98 554.351C2336.98 481.133 2274.25 421.778 2196.86 421.778C2119.46 421.778 2056.73 481.133 2056.73 554.351C2056.73 627.569 2119.46 686.924 2196.86 686.924Z" fill="#9A8E85"/>
<path fill-rule="evenodd" clip-rule="evenodd" d="M2338.55 330.186C2298.62 304.738 2252.58 290.546 2205.29 289.1C2158 287.653 2111.2 299.005 2069.79 321.964C2028.38 344.923 1993.9 378.641 1969.96 419.579C1946.03 460.518 1933.52 507.165 1933.76 554.624C1933.65 592.545 1941.51 630.062 1956.84 664.726C1996.79 690.008 2042.78 704.075 2090 705.46C2137.22 706.845 2183.94 695.499 2225.3 672.602C2266.66 649.706 2301.14 616.1 2325.14 575.286C2349.15 534.473 2361.8 487.947 2361.77 440.561C2361.89 402.537 2353.98 364.919 2338.55 330.186Z" fill="#BFD2EA"/>
<path fill-rule="evenodd" clip-rule="evenodd" d="M2338.55 778.38C2298.62 803.851 2252.58 818.062 2205.29 819.52C2157.99 820.979 2111.17 809.63 2069.75 786.667C2028.34 763.703 1993.85 729.974 1969.92 689.022C1945.99 648.07 1933.5 601.409 1933.76 553.941C1933.65 516.043 1941.52 478.549 1956.84 443.908C1996.79 418.626 2042.78 404.559 2090 403.174C2137.22 401.788 2183.94 413.135 2225.3 436.031C2266.66 458.927 2301.14 492.534 2325.14 533.348C2349.15 574.161 2361.8 620.686 2361.77 668.073C2361.9 706.075 2353.98 743.672 2338.55 778.38V778.38Z" fill="#B8DDDC"/>
<path fill-rule="evenodd" clip-rule="evenodd" d="M2055.09 330.186C2095.03 304.738 2141.06 290.546 2188.35 289.1C2235.64 287.653 2282.45 299.005 2323.86 321.964C2365.26 344.923 2399.75 378.641 2423.68 419.579C2447.62 460.518 2460.12 507.165 2459.89 554.624C2460 592.545 2452.13 630.062 2436.8 664.726C2396.85 690.008 2350.87 704.075 2303.65 705.46C2256.43 706.845 2209.7 695.499 2168.34 672.602C2126.98 649.706 2092.5 616.1 2068.5 575.286C2044.5 534.473 2031.85 487.947 2031.87 440.561C2031.76 402.537 2039.67 364.919 2055.09 330.186V330.186Z" fill="#F6C59B"/>
<path fill-rule="evenodd" clip-rule="evenodd" d="M2055.09 778.38C2095.02 803.851 2141.06 818.062 2188.36 819.52C2235.66 820.979 2282.47 809.63 2323.89 786.667C2365.31 763.703 2399.79 729.974 2423.72 689.022C2447.65 648.07 2460.15 601.409 2459.89 553.941C2459.99 516.043 2452.13 478.549 2436.8 443.908C2396.85 418.626 2350.87 404.559 2303.65 403.174C2256.43 401.788 2209.7 413.135 2168.34 436.031C2126.98 458.927 2092.5 492.534 2068.5 533.348C2044.5 574.161 2031.85 620.686 2031.87 668.073C2031.75 706.075 2039.66 743.672 2055.09 778.38V778.38Z" fill="#F6EDBC"/>
<path fill-rule="evenodd" clip-rule="evenodd" d="M2056.73 554.283C2072.8 588.101 2095.82 618.126 2124.28 642.386C2152.74 666.645 2185.99 684.589 2221.86 695.04C2257.72 705.49 2295.38 708.21 2332.37 703.021C2369.36 697.832 2404.83 684.851 2436.46 664.931C2451.9 630.219 2459.88 592.635 2459.89 554.624V553.941C2459.88 515.953 2451.9 478.393 2436.46 443.703C2404.83 423.792 2369.36 410.816 2332.38 405.628C2295.4 400.44 2257.74 403.156 2221.88 413.599C2186.02 424.042 2152.77 441.975 2124.3 466.221C2095.84 490.467 2072.81 520.478 2056.73 554.283V554.283Z" fill="#DDB38D"/>
<path fill-rule="evenodd" clip-rule="evenodd" d="M2336.64 554.283C2320.58 588.101 2297.55 618.127 2269.09 642.386C2240.63 666.645 2207.38 684.589 2171.52 695.04C2135.65 705.49 2097.99 708.21 2061 703.021C2024.01 697.832 1988.54 684.851 1956.91 664.931C1941.43 630.23 1933.45 592.639 1933.48 554.624V553.941C1933.47 515.958 1941.43 478.398 1956.84 443.703C1988.47 423.791 2023.95 410.815 2060.94 405.626C2097.92 400.437 2135.58 403.153 2171.45 413.596C2207.32 424.038 2240.58 441.971 2269.05 466.218C2297.52 490.464 2320.55 520.476 2336.64 554.283V554.283Z" fill="#8AB9D6"/>
<path fill-rule="evenodd" clip-rule="evenodd" d="M2055.09 778.38C2097.38 805.281 2146.44 819.5 2196.52 819.361H2197.2C2247.25 819.498 2296.29 805.279 2338.55 778.38C2353.98 743.672 2361.9 706.075 2361.77 668.073C2362.23 615.131 2346.72 563.285 2317.3 519.335C2287.87 475.384 2245.89 441.379 2196.86 421.778C2147.81 441.368 2105.82 475.368 2076.38 519.32C2046.94 563.272 2031.42 615.123 2031.87 668.073C2031.75 706.075 2039.66 743.672 2055.09 778.38V778.38Z" fill="#D0DFAD"/>
<path fill-rule="evenodd" clip-rule="evenodd" d="M2336.64 554.283C2308.52 493.846 2258.44 446.47 2196.65 421.846C2143.3 443.867 2098.52 482.672 2069.05 532.424C2039.57 582.175 2027.01 640.182 2033.24 697.716C2054.4 702.955 2076.12 705.593 2097.92 705.57C2147.98 705.928 2197.08 691.862 2239.4 665.043C2281.72 638.225 2315.47 599.781 2336.64 554.283V554.283Z" fill="#A3B1A0"/>
<path fill-rule="evenodd" clip-rule="evenodd" d="M2056.73 554.283C2077.87 599.718 2111.56 638.118 2153.8 664.932C2196.04 691.746 2245.06 705.85 2295.04 705.57C2316.96 705.563 2338.79 702.903 2360.07 697.647C2361.08 687.822 2361.58 677.951 2361.56 668.073C2362.02 615.131 2346.52 563.285 2317.09 519.335C2287.66 475.384 2245.68 441.379 2196.65 421.778C2134.85 446.403 2084.79 493.812 2056.73 554.283V554.283Z" fill="#CFAB87"/>
<path fill-rule="evenodd" clip-rule="evenodd" d="M2055.09 330.186C2039.67 364.92 2031.76 402.537 2031.87 440.561C2031.42 493.511 2046.94 545.362 2076.38 589.314C2105.82 633.266 2147.81 667.266 2196.86 686.856C2245.89 667.255 2287.87 633.25 2317.3 589.299C2346.72 545.349 2362.23 493.503 2361.77 440.561C2361.89 402.537 2353.98 364.92 2338.55 330.186C2296.28 303.311 2247.24 289.094 2197.2 289.205H2196.52C2146.45 289.096 2097.39 303.313 2055.09 330.186Z" fill="#DBB39A"/>
<path fill-rule="evenodd" clip-rule="evenodd" d="M2031.87 440.561C2031.5 493.416 2047.02 545.156 2076.42 589.022C2105.82 632.888 2147.72 666.841 2196.65 686.446C2258.46 661.818 2308.55 614.412 2336.64 553.941C2315.49 508.519 2281.8 470.133 2239.56 443.331C2197.32 416.53 2148.31 402.437 2098.33 402.722C2076.53 402.7 2054.81 405.337 2033.64 410.577C2032.49 420.53 2031.9 430.541 2031.87 440.561V440.561Z" fill="#A79E94"/>
<path fill-rule="evenodd" clip-rule="evenodd" d="M2056.73 554.283C2084.81 614.826 2134.96 662.27 2196.86 686.856C2245.89 667.255 2287.87 633.25 2317.3 589.299C2346.72 545.348 2362.23 493.503 2361.77 440.561C2361.79 430.683 2361.29 420.811 2360.27 410.986C2338.99 405.731 2317.16 403.071 2295.25 403.063C2245.23 402.739 2196.18 416.813 2153.9 443.617C2111.62 470.421 2077.9 508.829 2056.73 554.283V554.283Z" fill="#CAA78D"/>
<path d="M2196.86 686.924C2274.25 686.924 2336.98 627.569 2336.98 554.351C2336.98 481.133 2274.25 421.778 2196.86 421.778C2119.46 421.778 2056.73 481.133 2056.73 554.351C2056.73 627.569 2119.46 686.924 2196.86 686.924Z" fill="#9A8E85"/>
<path fill-rule="evenodd" clip-rule="evenodd" d="M2338.55 330.186C2298.62 304.738 2252.58 290.546 2205.29 289.1C2158 287.653 2111.2 299.005 2069.79 321.964C2028.38 344.923 1993.9 378.641 1969.96 419.579C1946.03 460.518 1933.52 507.165 1933.76 554.624C1933.65 592.545 1941.51 630.062 1956.84 664.726C1996.79 690.008 2042.78 704.075 2090 705.46C2137.22 706.845 2183.94 695.499 2225.3 672.602C2266.66 649.706 2301.14 616.1 2325.14 575.286C2349.15 534.473 2361.8 487.947 2361.77 440.561C2361.89 402.537 2353.98 364.919 2338.55 330.186Z" fill="#BFD2EA"/>
<path fill-rule="evenodd" clip-rule="evenodd" d="M2338.55 778.38C2298.62 803.851 2252.58 818.062 2205.29 819.52C2157.99 820.979 2111.17 809.63 2069.75 786.667C2028.34 763.703 1993.85 729.974 1969.92 689.022C1945.99 648.07 1933.5 601.409 1933.76 553.941C1933.65 516.043 1941.52 478.549 1956.84 443.908C1996.79 418.626 2042.78 404.559 2090 403.174C2137.22 401.788 2183.94 413.135 2225.3 436.031C2266.66 458.927 2301.14 492.534 2325.14 533.348C2349.15 574.161 2361.8 620.686 2361.77 668.073C2361.9 706.075 2353.98 743.672 2338.55 778.38V778.38Z" fill="#B8DDDC"/>
<path fill-rule="evenodd" clip-rule="evenodd" d="M2055.09 330.186C2095.03 304.738 2141.06 290.546 2188.35 289.1C2235.64 287.653 2282.45 299.005 2323.86 321.964C2365.26 344.923 2399.75 378.641 2423.68 419.579C2447.62 460.518 2460.12 507.165 2459.89 554.624C2460 592.545 2452.13 630.062 2436.8 664.726C2396.85 690.008 2350.87 704.075 2303.65 705.46C2256.43 706.845 2209.7 695.499 2168.34 672.602C2126.98 649.706 2092.5 616.1 2068.5 575.286C2044.5 534.473 2031.85 487.947 2031.87 440.561C2031.76 402.537 2039.67 364.919 2055.09 330.186V330.186Z" fill="#F6C59B"/>
<path fill-rule="evenodd" clip-rule="evenodd" d="M2055.09 778.38C2095.02 803.851 2141.06 818.062 2188.36 819.52C2235.66 820.979 2282.47 809.63 2323.89 786.667C2365.31 763.703 2399.79 729.974 2423.72 689.022C2447.65 648.07 2460.15 601.409 2459.89 553.941C2459.99 516.043 2452.13 478.549 2436.8 443.908C2396.85 418.626 2350.87 404.559 2303.65 403.174C2256.43 401.788 2209.7 413.135 2168.34 436.031C2126.98 458.927 2092.5 492.534 2068.5 533.348C2044.5 574.161 2031.85 620.686 2031.87 668.073C2031.75 706.075 2039.66 743.672 2055.09 778.38V778.38Z" fill="#F6EDBC"/>
<path fill-rule="evenodd" clip-rule="evenodd" d="M2056.73 554.283C2072.8 588.101 2095.82 618.126 2124.28 642.386C2152.74 666.645 2185.99 684.589 2221.86 695.04C2257.72 705.49 2295.38 708.21 2332.37 703.021C2369.36 697.832 2404.83 684.851 2436.46 664.931C2451.9 630.219 2459.88 592.635 2459.89 554.624V553.941C2459.88 515.953 2451.9 478.393 2436.46 443.703C2404.83 423.792 2369.36 410.816 2332.38 405.628C2295.4 400.44 2257.74 403.156 2221.88 413.599C2186.02 424.042 2152.77 441.975 2124.3 466.221C2095.84 490.467 2072.81 520.478 2056.73 554.283V554.283Z" fill="#DDB38D"/>
<path fill-rule="evenodd" clip-rule="evenodd" d="M2336.64 554.283C2320.58 588.101 2297.55 618.127 2269.09 642.386C2240.63 666.645 2207.38 684.589 2171.52 695.04C2135.65 705.49 2097.99 708.21 2061 703.021C2024.01 697.832 1988.54 684.851 1956.91 664.931C1941.43 630.23 1933.45 592.639 1933.48 554.624V553.941C1933.47 515.958 1941.43 478.398 1956.84 443.703C1988.47 423.791 2023.95 410.815 2060.94 405.626C2097.92 400.437 2135.58 403.153 2171.45 413.596C2207.32 424.038 2240.58 441.971 2269.05 466.218C2297.52 490.464 2320.55 520.476 2336.64 554.283V554.283Z" fill="#8AB9D6"/>
<path fill-rule="evenodd" clip-rule="evenodd" d="M2055.09 778.38C2097.38 805.281 2146.44 819.5 2196.52 819.361H2197.2C2247.25 819.498 2296.29 805.279 2338.55 778.38C2353.98 743.672 2361.9 706.075 2361.77 668.073C2362.23 615.131 2346.72 563.285 2317.3 519.335C2287.87 475.384 2245.89 441.379 2196.86 421.778C2147.81 441.368 2105.82 475.368 2076.38 519.32C2046.94 563.272 2031.42 615.123 2031.87 668.073C2031.75 706.075 2039.66 743.672 2055.09 778.38V778.38Z" fill="#D0DFAD"/>
<path fill-rule="evenodd" clip-rule="evenodd" d="M2336.64 554.283C2308.52 493.846 2258.44 446.47 2196.65 421.846C2143.3 443.867 2098.52 482.672 2069.05 532.424C2039.57 582.175 2027.01 640.182 2033.24 697.716C2054.4 702.955 2076.12 705.593 2097.92 705.57C2147.98 705.928 2197.08 691.862 2239.4 665.043C2281.72 638.225 2315.47 599.781 2336.64 554.283V554.283Z" fill="#A3B1A0"/>
<path fill-rule="evenodd" clip-rule="evenodd" d="M2056.73 554.283C2077.87 599.718 2111.56 638.118 2153.8 664.932C2196.04 691.746 2245.06 705.85 2295.04 705.57C2316.96 705.563 2338.79 702.903 2360.07 697.647C2361.08 687.822 2361.58 677.951 2361.56 668.073C2362.02 615.131 2346.52 563.285 2317.09 519.335C2287.66 475.384 2245.68 441.379 2196.65 421.778C2134.85 446.403 2084.79 493.812 2056.73 554.283V554.283Z" fill="#CFAB87"/>
<path fill-rule="evenodd" clip-rule="evenodd" d="M2055.09 330.186C2039.67 364.92 2031.76 402.537 2031.87 440.561C2031.42 493.511 2046.94 545.362 2076.38 589.314C2105.82 633.266 2147.81 667.266 2196.86 686.856C2245.89 667.255 2287.87 633.25 2317.3 589.299C2346.72 545.349 2362.23 493.503 2361.77 440.561C2361.89 402.537 2353.98 364.92 2338.55 330.186C2296.28 303.311 2247.24 289.094 2197.2 289.205H2196.52C2146.45 289.096 2097.39 303.313 2055.09 330.186Z" fill="#DBB39A"/>
<path fill-rule="evenodd" clip-rule="evenodd" d="M2031.87 440.561C2031.5 493.416 2047.02 545.156 2076.42 589.022C2105.82 632.888 2147.72 666.841 2196.65 686.446C2258.46 661.818 2308.55 614.412 2336.64 553.941C2315.49 508.519 2281.8 470.133 2239.56 443.331C2197.32 416.53 2148.31 402.437 2098.33 402.722C2076.53 402.7 2054.81 405.337 2033.64 410.577C2032.49 420.53 2031.9 430.541 2031.87 440.561V440.561Z" fill="#A79E94"/>
<path fill-rule="evenodd" clip-rule="evenodd" d="M2056.73 554.283C2084.81 614.826 2134.96 662.27 2196.86 686.856C2245.89 667.255 2287.87 633.25 2317.3 589.299C2346.72 545.348 2362.23 493.503 2361.77 440.561C2361.79 430.683 2361.29 420.811 2360.27 410.986C2338.99 405.731 2317.16 403.071 2295.25 403.063C2245.23 402.739 2196.18 416.813 2153.9 443.617C2111.62 470.421 2077.9 508.829 2056.73 554.283V554.283Z" fill="#CAA78D"/>
<path d="M2196.86 686.924C2274.25 686.924 2336.98 627.569 2336.98 554.351C2336.98 481.133 2274.25 421.778 2196.86 421.778C2119.46 421.778 2056.73 481.133 2056.73 554.351C2056.73 627.569 2119.46 686.924 2196.86 686.924Z" fill="#9A8E85"/>
<path opacity="0.5" fill-rule="evenodd" clip-rule="evenodd" d="M2209.18 600.591C2207.93 596.939 2206.04 593.539 2203.6 590.551C2200.94 588.57 2196.79 588.843 2195.97 592.6C2191.86 597.857 2188.81 603.865 2186.98 610.29C2183.78 616.779 2180.72 623.609 2177.18 631.259C2175.41 635.083 2172.89 639.113 2170.37 643.075C2167.1 648.111 2164.21 653.385 2161.72 658.852C2159.95 663.77 2160.22 673.674 2158.59 678.113L2125.36 753.245L2116.1 779.746C2115.28 783.639 2113.92 787.259 2113.51 790.947C2113.61 793.943 2113.41 796.941 2112.9 799.895C2112.59 801.297 2111.8 802.547 2110.67 803.431C2109.54 804.315 2108.14 804.779 2106.7 804.744L2084.23 796.206C2081.03 795.319 2081.58 792.245 2082.33 790.196C2082.33 789.65 2085.6 785.142 2086.82 782.615C2087.3 781.317 2088.12 779.882 2088.66 778.312C2090.16 774.965 2094.72 771.481 2095.47 768.066L2097.92 763.695L2099.83 758.436C2102.69 747.303 2106.02 735.555 2108.61 724.285C2110.65 716.157 2113.92 699.833 2114.13 699.287L2135.51 652.364L2139.05 629.346L2150.55 597.722L2158.11 581.535C2159.61 578.598 2160.63 569.309 2162.13 566.167C2162.67 561.454 2162.88 553.327 2163.42 548.272C2163.75 545.873 2163.93 543.455 2163.97 541.032C2163.97 539.666 2163.97 538.3 2163.97 536.866C2165.06 530.036 2167.78 517.127 2167.78 516.376C2167.9 511.36 2167.72 506.342 2167.24 501.349C2166.47 497.695 2165.28 494.142 2163.7 490.762C2159.54 479.083 2157.57 467.062 2153.75 455.656C2150.32 449.267 2146.31 443.209 2141.77 437.556C2129.84 430.557 2117.36 424.55 2104.46 419.592L2095.13 416.792C2093.34 415.833 2091.47 415.033 2089.55 414.401L2053.12 395.755C2046.31 393.433 2040.04 393.569 2033.58 391.247C2032.76 391.247 2025.2 387.286 2019.07 383.871C2018.36 383.672 2017.71 383.3 2017.17 382.787C2016.64 382.275 2016.24 381.638 2016.01 380.934C2015.33 379.431 2015.12 379.09 2015.12 379.09C2015.12 379.09 2015.74 379.909 2015.94 377.928C2014.17 375.538 2009.13 375.128 2010.22 371.713C2010.22 370.893 2011.04 371.098 2011.24 370.62C2011.45 370.142 2010.49 367.683 2010.83 366.864C2011.17 366.044 2011.51 365.634 2013.83 365.02C2013.68 364.735 2013.6 364.419 2013.6 364.097C2013.6 363.776 2013.68 363.46 2013.83 363.175C2013.83 362.629 2014.24 362.766 2014.65 362.561C2018.73 363.517 2026.83 363.79 2027.58 364.063L2037.18 367.615C2040.18 368.981 2038.21 368.298 2045.29 371.44C2047.13 372.123 2048.49 374.104 2050.39 375.401C2052.62 377.315 2055.1 378.923 2057.75 380.182C2058.29 380.182 2059.59 380.865 2064.56 382.368L2099.49 390.769C2103.1 392.166 2106.61 393.833 2109.97 395.755C2113.17 397.531 2119.1 401.492 2119.64 401.697C2120.19 401.902 2127.68 402.244 2131.56 402.79C2142.72 404.498 2145.18 404.634 2145.58 404.839C2150.6 404.967 2155.61 405.423 2160.56 406.205L2168.26 405.591C2171.05 405.591 2174.11 404.156 2176.84 404.156C2179.12 404.236 2181.4 404.052 2183.65 403.61C2184.74 403.063 2184.19 401.083 2185.01 399.99V390.496C2185.01 389.676 2185.01 388.037 2184.46 387.217C2182.49 384.417 2179.22 382.436 2177.65 379.704C2175.51 374.752 2174.13 369.501 2173.57 364.132C2172.41 357.984 2171.32 345.758 2171.32 345.144C2171.61 342.585 2172.19 340.065 2173.02 337.631C2174.05 333.631 2176.26 330.036 2179.36 327.317C2180.93 326.235 2182.59 325.297 2184.33 324.517C2189.68 321.336 2195.74 319.529 2201.96 319.258C2209.18 319.258 2222.39 324.312 2226.27 333.737C2227.87 338.575 2228.54 343.675 2228.24 348.764C2228.24 359.624 2226.54 361.331 2222.39 374.377C2221.84 375.743 2219.94 377.45 2219.39 378.816C2217.56 383.007 2216.25 387.413 2215.51 391.93C2215.51 394.731 2216.06 401.083 2219.67 402.517C2224.91 404.97 2230.42 406.826 2236.08 408.049C2238.91 407.836 2241.75 407.836 2244.59 408.049C2253.98 408.049 2255.69 411.055 2262.43 408.596C2262.43 408.596 2267.12 408.596 2270.8 408.049C2277.71 407.918 2284.57 406.908 2291.23 405.044L2304.85 399.443C2308.11 398.206 2311.46 397.18 2314.86 396.37C2323.84 394.321 2342.43 390.428 2343.18 390.154C2346.94 388.351 2350.44 386.054 2353.6 383.324C2357.08 380.619 2361.02 378.581 2365.24 377.314C2365.99 377.314 2372.66 375.128 2376.27 374.445C2378.64 373.792 2381.1 373.493 2383.56 373.557C2385.25 374.839 2386.7 376.412 2387.85 378.202C2387.85 378.68 2387.85 379.431 2387.85 380.66C2387.85 380.66 2388.32 381.07 2388.46 381.617C2389.41 384.212 2385.46 385.373 2385.19 385.51C2386.96 388.72 2382.26 390.428 2380.56 391.316L2371.78 395.482L2352.03 401.219C2335.35 408.528 2331.06 414.538 2316.49 419.866L2289.25 429.633L2265.83 439.81L2246.36 447.118C2245.14 447.952 2244.15 449.074 2243.47 450.385C2242.8 451.696 2242.45 453.155 2242.48 454.631C2242.39 457.799 2242.02 460.952 2241.39 464.057C2237.36 475.545 2234.04 487.269 2231.45 499.164L2234.78 526.484V569.651L2245 592.668L2257.93 631.737C2258.54 634.196 2259.43 636.859 2259.91 639.66C2260.93 644.919 2262.77 654.891 2263.04 655.71L2273.39 676.201C2273.87 678.387 2290.82 743.205 2295.65 756.592C2298.03 762.829 2301.16 768.748 2304.98 774.213C2306.75 776.809 2310.22 778.175 2312.27 781.044C2313.92 783.158 2315.34 785.449 2316.49 787.874C2316.85 789.308 2316.85 790.81 2316.49 792.245C2315.81 793.575 2314.77 794.687 2313.49 795.455L2290.41 803.925C2286.05 804.881 2285.85 802.627 2285.17 800.783C2283.67 796.616 2285.17 797.777 2284.08 792.86C2282.99 787.942 2282.58 779.814 2282.31 779.199L2253.85 720.665L2245.4 697.374L2240.16 677.977L2238.39 672.991C2235.26 667.595 2231.58 662.062 2229.13 656.257C2224.64 647.241 2216.94 628.936 2216.67 628.526L2213.47 619.579L2209.18 600.591Z" fill="white"/>
<path opacity="0.63" fill-rule="evenodd" clip-rule="evenodd" d="M2226.68 333.806C2228.28 338.644 2228.95 343.743 2228.65 348.832C2228.65 359.692 2226.95 361.399 2222.8 374.445C2222.25 375.811 2220.35 377.519 2219.8 378.885C2217.97 383.076 2216.66 387.481 2215.92 391.998C2215.92 394.799 2216.47 401.151 2220.07 402.585C2226.59 405.58 2233.45 407.737 2240.5 409.006C2245.53 409.447 2250.51 410.269 2255.41 411.464C2264.26 414.811 2264.81 418.295 2271.96 418.295L2292.39 416.655C2296.02 416.531 2299.65 416.992 2303.14 418.021C2309.74 420.319 2316.61 421.721 2323.57 422.188L2338.21 421.641C2341.74 421.558 2345.26 421.74 2348.76 422.188C2357.82 423.28 2376.61 426.081 2377.43 426.081C2381.61 425.574 2385.7 424.541 2389.62 423.007C2393.79 421.659 2398.18 421.103 2402.56 421.368C2403.37 421.368 2410.32 421.915 2413.93 422.461C2416.37 422.682 2418.78 423.233 2421.08 424.1C2422.23 425.909 2423.08 427.892 2423.59 429.974C2423.59 430.52 2422.98 431.135 2422.44 432.228C2422.44 432.228 2422.78 432.774 2422.78 433.321C2422.78 436.121 2418.56 435.848 2418.35 435.848C2418.9 439.468 2413.93 439.468 2411.95 439.741C2409.98 440.014 2403.17 440.561 2402.28 440.561L2381.86 439.195C2363.61 440.288 2357.55 444.454 2342.09 444.454H2313.09L2264.06 448.347L2247.45 446.981C2247.45 446.981 2246.36 446.981 2246.08 446.981C2244.87 447.815 2243.88 448.937 2243.2 450.248C2242.53 451.559 2242.18 453.018 2242.2 454.494C2242.11 457.662 2241.75 460.816 2241.11 463.92C2237.09 475.408 2233.77 487.132 2231.17 499.027L2234.51 526.347V563.913L2237.51 606.738L2236.42 647.719C2236.42 650.246 2236.42 653.047 2235.6 655.847C2234.78 661.106 2233.08 671.147 2233.08 671.966L2235.87 694.779C2235.87 697.033 2229.54 763.832 2229.54 778.038C2229.64 784.705 2230.55 791.335 2232.26 797.777C2233.08 800.851 2235.87 803.378 2236.96 806.452C2237.78 808.982 2238.33 811.592 2238.59 814.238C2238.44 815.708 2237.98 817.128 2237.23 818.404C2236.18 819.409 2234.85 820.075 2233.42 820.317H2208.84C2204.41 819.77 2204.96 817.585 2204.96 815.604C2204.96 811.164 2206.05 812.804 2206.59 807.818C2207.14 802.832 2209.66 795.045 2209.66 794.157L2202.85 729.339V704.546L2204.55 684.465V679.206C2203.21 672.956 2202.19 666.641 2201.49 660.287C2200.4 650.246 2199.31 630.507 2199.31 629.892V620.467L2202.03 592.668C2202.37 591.78 2200.6 590.141 2199.24 590.141C2197.88 590.141 2198.42 590.141 2198.15 590.687C2198.15 594.307 2196.45 607.353 2196.17 611.178C2195.29 618.486 2194.74 625.931 2194.06 634.332C2193.66 638.498 2192.63 643.211 2191.82 647.992C2190.49 653.839 2189.58 659.774 2189.09 665.751C2189.09 671.078 2192.63 680.231 2192.63 684.943L2186.85 766.905V794.977C2187.39 798.87 2187.39 802.763 2188.28 806.383C2189.38 809.186 2190.2 812.092 2190.73 815.058C2190.92 816.501 2190.61 817.968 2189.86 819.211C2189.1 820.455 2187.94 821.4 2186.57 821.888L2162.54 821.546C2159.27 821.888 2158.66 818.814 2158.66 816.56C2158.66 816.014 2160.09 810.686 2160.36 807.954C2160.36 806.52 2160.36 804.881 2160.36 803.242C2160.36 799.553 2163.7 794.567 2163.42 791.22L2164.24 786.234V780.702C2163.15 769.227 2162.27 757.001 2160.9 745.595C2160.09 737.262 2157.57 720.802 2157.57 720.255L2161.72 668.756L2157.3 645.943V612.202L2159 594.444C2159.54 589.39 2159.81 584.13 2160.36 578.803C2160.9 573.475 2161.18 568.831 2161.72 563.777C2162.27 558.722 2162.61 554.078 2163.15 549.024C2163.48 546.624 2163.66 544.206 2163.7 541.783C2163.7 540.417 2163.7 539.052 2163.7 537.617C2164.79 530.787 2167.51 517.878 2167.51 517.127C2167.63 512.112 2167.45 507.094 2166.96 502.1C2166.2 498.446 2165.01 494.893 2163.42 491.514C2159.27 479.834 2157.3 467.813 2153.48 456.407C2151.47 451.567 2148.45 447.214 2144.63 443.634C2143.54 442.473 2141.29 442.268 2140.2 441.927C2137.41 441.38 2134.69 440.834 2131.9 440.561H2116.71C2104.76 438.454 2092.68 437.153 2080.56 436.668L2070.89 437.214C2068.87 437.055 2066.85 437.055 2064.83 437.214L2023.98 432.228C2016.49 432.228 2010.97 434.687 2004.09 434.687C2003.28 434.687 1994.83 433.867 1987.96 432.774C1987.22 432.832 1986.48 432.706 1985.8 432.408C1985.13 432.111 1984.53 431.65 1984.07 431.067L1982.65 429.701C1982.65 429.701 1983.53 430.179 1982.99 428.335C1980.53 426.627 1975.5 428.335 1975.5 424.442C1975.5 423.554 1976.11 423.554 1976.11 423.007C1976.11 422.461 1974.41 420.48 1974.41 419.661C1974.41 418.841 1974.41 418.295 1976.65 416.86C1976.11 416.314 1975.77 416.041 1975.77 415.221C1975.77 414.401 1976.11 414.675 1976.31 414.401C1980.53 413.855 1988.23 411.328 1989.05 411.328H1999.26C2002.6 411.669 2000.48 411.328 2008.25 412.147C2010.33 412.609 2012.36 413.272 2014.31 414.128C2017.04 415.153 2019.91 415.797 2022.82 416.041C2023.43 416.041 2024.79 416.041 2030.04 416.041L2065.65 411.874C2069.53 411.964 2073.39 412.329 2077.22 412.967C2080.83 413.513 2087.71 415.221 2088.25 415.221C2088.8 415.221 2096.01 412.967 2099.9 412.147C2105.18 410.642 2110.69 410.087 2116.17 410.508H2122.98C2127.4 410.508 2135.98 411.874 2136.6 411.874C2141.68 410.307 2146.84 409.007 2152.05 407.981C2156.75 407.161 2162.27 407.161 2167.51 406.615C2170.3 406.615 2173.36 405.181 2176.09 405.181C2178.37 405.26 2180.66 405.077 2182.9 404.634C2183.99 404.088 2183.44 402.107 2184.26 401.014V391.52C2184.26 390.701 2184.26 389.061 2183.71 388.242C2181.74 385.441 2178.47 383.461 2176.91 380.729C2174.76 375.777 2173.38 370.525 2172.82 365.156C2171.66 359.009 2170.57 346.783 2170.57 346.168C2170.87 343.609 2171.44 341.09 2172.28 338.655C2173.3 334.656 2175.51 331.061 2178.61 328.341C2180.18 327.259 2181.84 326.322 2183.58 325.541C2188.94 322.36 2194.99 320.554 2201.21 320.282C2209.59 319.326 2223.21 324.38 2226.68 333.806Z" fill="white"/>
</svg>
